<?xml version="1.0" encoding="utf-8"?>
<!-- Generator: Adobe Illustrator 24.0.1, SVG Export Plug-In . SVG Version: 6.00 Build 0)  -->
<svg version="1.1" id="freepik_stories-vintage-truck" xmlns:svgjs="http://svgjs.com/svgjs"
	 xmlns="http://www.w3.org/2000/svg" xmlns:xlink="http://www.w3.org/1999/xlink" x="0px" y="0px" viewBox="0 0 500 500"
	 style="enable-background:new 0 0 500 500;" xml:space="preserve">
<style type="text/css">
	.st0{fill:#F5F5F5;}
	.st1{fill:#E0E0E0;}
	.st2{fill:#EBEBEB;}
	.st3{fill:#FFFFFF;}
	.st4{fill:#263238;}
	.st5{fill:#FF725E;}
	.st6{opacity:0.3;}
	.st7{fill:#455A64;}
	.st8{fill:#FAFAFA;}
	.st9{opacity:0.2;}
</style>
<g id="freepik--background-complete--inject-139">
	<path id="ela2zzlhz3z1e" class="st0" d="M394.6,167.1c0.4-2.5-3.2-4.6-5.9-4.8c-1.3,0-2.6-0.1-3.8-0.3c-2.6-0.9-3.7-4.3-6.2-5.4
		c-1.9-0.8-4.1-0.1-6,0.9s-3.7,2.1-5.8,2.2c-1.8,0.1-3.8-0.6-5.3,0.3c-1.2,0.6-1.8,2-2.9,2.8c-1.1,0.7-2.4,1-3.8,1
		c-1.3,0-2.6,0.2-3.9,0.6c-1.3,0.5-2.1,1.8-1.9,3.1L394.6,167.1z"/>
	<path id="eltpvqg6qhmbr" class="st0" d="M91,36.6c0.4-2.9-3.7-5.3-6.7-5.5c-1.4-0.1-3,0.1-4.3-0.4c-3-1-4.2-4.9-7.1-6.1
		c-2.2-0.9-4.7-0.1-6.8,1s-4.2,2.4-6.6,2.5c-2,0.1-4.3-0.6-6.1,0.4c-1.3,0.8-2,2.3-3.3,3.2c-1.3,0.8-2.8,1.2-4.3,1.2
		c-1.5,0-3,0.2-4.4,0.7c-1.4,0.6-2.3,2-2.2,3.5L91,36.6z"/>
	<path id="elgpwge5ioekr" class="st0" d="M276.8,56.9c0.6-4.1-5.2-7.5-9.5-7.8c-2.1-0.2-4.2,0.2-6.2-0.5c-4.3-1.5-5.9-7-10.1-8.7
		c-3.1-1.3-6.7-0.1-9.7,1.4s-6,3.4-9.3,3.6c-2.9,0.2-6.1-0.9-8.6,0.5c-1.9,1.1-2.9,3.3-4.6,4.5s-4,1.5-6.1,1.7s-4.3,0.1-6.3,1
		s-3.5,2.9-3.1,5L276.8,56.9z"/>
	<path id="ely95vtf907dg" class="st0" d="M430.4,38.6c0.5-3.8-4.9-7-8.9-7.3c-1.9-0.2-4,0.1-5.8-0.5c-4-1.4-5.6-6.5-9.5-8.2
		c-2.9-1.2-6.2-0.1-9,1.3s-5.6,3.2-8.7,3.4c-2.7,0.2-5.7-0.8-8.1,0.5c-1.8,1-2.7,3-4.4,4.3c-1.7,1.1-3.7,1.6-5.7,1.5
		c-2,0-4,0.3-5.9,1c-1.8,0.8-3.3,2.8-2.9,4.7L430.4,38.6z"/>
	<path id="elwc1ozuzek8l" class="st0" d="M66.5,124.7c0.3-2.5-3.2-4.6-5.9-4.8c-1.3,0.1-2.6-0.1-3.8-0.3c-2.6-0.9-3.7-4.3-6.2-5.4
		c-1.9-0.8-4.1-0.1-6,0.8s-3.7,2.1-5.8,2.2c-1.8,0.1-3.8-0.6-5.3,0.3c-1.2,0.7-1.8,2-2.9,2.8c-1.1,0.7-2.4,1-3.8,1
		c-1.3,0-2.6,0.2-3.9,0.6c-1.3,0.5-2,1.8-1.9,3.1L66.5,124.7z"/>
	<path id="eli4t5jqkqcp" class="st1" d="M430.3,104.6c-0.7,0.3-19.7,10.2-19.7,10.2l3.9,4.8l16.9-13L430.3,104.6z"/>
	<path id="elnchfb83krnj" class="st1" d="M433.1,110c-0.6,0.6-15.7,15.7-15.7,15.7l5.1,3.4l12.1-17.5L433.1,110z"/>
	<path id="elm2fgl2sz0a" class="st1" d="M427.7,99.1c-0.8,0.1-21.6,1.1-21.6,1.1l1.5,7.4l20.4-6.3L427.7,99.1z"/>
	<path id="elxgns967kua" class="st1" d="M428.2,93.3c-0.8-0.1-21-5-21-5l-0.6,7.5l21.3-0.3L428.2,93.3z"/>
	<path id="el5scrtru6pxw" class="st1" d="M431.8,88.9c-0.6-0.5-16.2-14.3-16.2-14.3l-4.1,6.3l19,9.8L431.8,88.9z"/>
	<path id="elapuai31mtc" class="st1" d="M436.2,86.8c-0.3-0.7-6.9-20.5-6.9-20.5l-6.7,3.4l11.6,17.9L436.2,86.8z"/>
	<path id="el3bys8wyfwsg" class="st1" d="M442.7,86.1c0.1-0.8,3.3-21.3,3.3-21.3l-7.5-0.1l2,21.2L442.7,86.1z"/>
	<path id="elxmqvbnatnj" class="st1" d="M448.6,99.8c0,3.2-2.6,5.8-5.8,5.8s-5.8-2.6-5.8-5.8s2.6-5.8,5.8-5.8l0,0
		C446.1,94.1,448.6,96.6,448.6,99.8C448.6,99.8,448.6,99.8,448.6,99.8z"/>
	<path id="elebrvn83ubu" class="st1" d="M421.6,294.8c-0.3,0,3.5-41.2,8.6-91.9s9.4-91.8,9.7-91.8s-3.5,41.2-8.6,91.9
		S422,294.8,421.6,294.8z"/>
	<path id="el1cqi53r14kf" class="st1" d="M466,293.5c-0.3,0-4.6-40.3-9.6-90s-8.9-90.1-8.5-90.1s4.6,40.3,9.6,90
		S466.3,293.5,466,293.5z"/>
	<path id="el2a43xbux2hh" class="st1" d="M454.3,178.6c0,0.3-4.4,0.6-9.9,0.6s-9.9-0.3-9.9-0.6s4.4-0.6,9.9-0.6
		S454.3,178.3,454.3,178.6z"/>
	<path id="elayis5dv3j3k" class="st1" d="M458.5,223.7c0,0.3-6.5,0.6-14.5,0.6s-14.5-0.2-14.5-0.6s6.5-0.6,14.5-0.6
		S458.5,223.4,458.5,223.7z"/>
	<path id="ell3gqovcavb9" class="st1" d="M463.8,269.7c0,0.3-8.8,0.6-19.6,0.6s-19.6-0.3-19.6-0.6s8.8-0.6,19.6-0.6
		S463.8,269.4,463.8,269.7z"/>
	<path id="eltdinm2if0w" class="st1" d="M443.4,103.3c0.3,0,0.9,42.6,1.4,95.1s0.6,95.1,0.3,95.1s-0.9-42.6-1.4-95.1
		S443.1,103.3,443.4,103.3z"/>
	<path id="elutkmf0zczl" class="st1" d="M469.3,100.8c0-0.1,0-0.3,0-0.4c0-0.3-0.1-0.7-0.1-1.3c0-0.3,0-0.6-0.1-0.9
		s-0.1-0.7-0.2-1.1c-0.1-0.9-0.3-1.9-0.6-2.8c-0.6-2.5-1.7-4.9-3-7.2c-7.4-12.2-23.1-16.5-35.7-9.9c-1.1,0.6-2.2,1.3-3.3,2.1
		c-1.1,0.8-2.1,1.7-3,2.6c-0.9,1-1.8,2-2.6,3.1c-1.7,2.2-3,4.7-3.8,7.4c-1.8,5.5-1.8,11.4,0,16.9c0.9,2.6,2.2,5.1,3.8,7.4
		c0.8,1.1,1.7,2.1,2.6,3.1c0.9,0.9,1.9,1.8,3,2.6c2.1,1.6,4.3,2.8,6.8,3.7c12.1,4.4,25.6-0.4,32.2-11.4c1.3-2.2,2.4-4.6,3-7.2
		c0.3-0.9,0.4-1.8,0.6-2.8c0.1-0.4,0.1-0.8,0.2-1.1s0-0.7,0.1-0.9c0-0.6,0.1-1,0.1-1.3C469.3,101.1,469.3,100.9,469.3,100.8
		c0,0.1,0,0.3,0,0.4c0,0.3,0,0.7,0,1.3c0,0.3,0,0.6,0,0.9s-0.1,0.7-0.1,1.1c-0.1,0.9-0.3,1.9-0.5,2.8c-0.6,2.6-1.6,5-3,7.3
		c-4,6.7-10.6,11.4-18.3,12.9c-4.8,0.9-9.7,0.5-14.3-1.2c-1.2-0.4-2.4-1-3.6-1.6c-1.2-0.6-2.3-1.4-3.4-2.1c-1.1-0.8-2.1-1.7-3.1-2.6
		c-1-1-1.9-2.1-2.7-3.2c-1.7-2.3-3-4.8-3.9-7.5c-1.9-5.6-1.9-11.6,0-17.2c0.9-2.7,2.2-5.2,3.9-7.5c1.6-2.2,3.5-4.2,5.7-5.8
		c2.1-1.6,4.4-2.8,6.9-3.7c12.3-4.5,26,0.5,32.7,11.7c1.3,2.3,2.3,4.7,3,7.3c0.2,0.9,0.4,1.9,0.5,2.8c0,0.4,0.1,0.8,0.1,1.1
		s0,0.7,0,1c0,0.6,0,1,0,1.3C469.2,100.5,469.3,100.7,469.3,100.8z"/>
	<path id="el9wrfjsl6mwe" class="st1" d="M452.4,92c0.9,0.1,20.3-5.7,20.3-5.7l-5.4-9.5l-15.5,13.4L452.4,92z"/>
	<path id="elzcunud0r2f" class="st1" d="M447.9,87.5c0.6-0.6,16.7-15.2,16.7-15.2l-7.6-5.9l-10.7,20.3L447.9,87.5z"/>
	<path id="elh2yfgamewct" class="st1" d="M454.7,99.4c0.8-0.1,21.6-1.1,21.6-1.1l-1.5-7.4l-20.4,6.3L454.7,99.4z"/>
	<path id="el711vmtti1lg" class="st1" d="M453.7,106.7c0.8,0.2,20.8,6,20.8,6l1-7.4l-21.3-0.7L453.7,106.7z"/>
	<path id="el3jodw602xrn" class="st1" d="M450.8,111.6c0.6,0.5,16.2,14.4,16.2,14.4l4.1-6.3l-18.9-9.8L450.8,111.6z"/>
	<path id="elgo36ftyjr4v" class="st1" d="M446.2,112.6c0.3,0.7,6.9,20.5,6.9,20.5l6.7-3.4l-11.6-17.9L446.2,112.6z"/>
	<path id="el3dzymf51qiw" class="st1" d="M438.4,112c-0.2,0.8-5.7,20.8-5.7,20.8l7.5,0.9l0.4-21.3L438.4,112z"/>
	<path id="elvjwqwid2ay" class="st1" d="M102.6,85.3h0.6c2.3,0,4.2,1.9,4.2,4.2V248c0,2.3-1.9,4.1-4.2,4.1h-0.6
		c-2.3,0-4.2-1.9-4.2-4.1V89.4C98.4,87.1,100.3,85.3,102.6,85.3z"/>
	<path id="el905wdt72r45" class="st2" d="M132.4,39.3L132.4,39.3c14.8,0,26.7,12,26.8,26.7v183.7c0,3-2.4,5.4-5.4,5.4H111
		c-3,0-5.4-2.4-5.4-5.4V66C105.6,51.2,117.6,39.3,132.4,39.3z"/>
	<rect id="elgvnmeaznxug" x="57.8" y="252.2" class="st2" width="103.3" height="3.9"/>
	<rect id="eljt95xbuhyzd" x="62.1" y="255.1" class="st2" width="97" height="43.5"/>
	<path id="el00e4rjpejjrzc" class="st1" d="M105.1,63.6h55.2c0.8,0,1.4,0.6,1.4,1.4v0.7c0,0.8-0.6,1.4-1.4,1.4h-55.2
		c-0.8,0-1.4-0.6-1.4-1.4V65C103.8,64.3,104.4,63.6,105.1,63.6z"/>
	<path id="el0s3wslt79kyh" class="st1" d="M160.3,67.1c0.1,0,0.2,0,0.3-0.1c0.3-0.1,0.5-0.2,0.7-0.5c0.1-0.2,0.2-0.4,0.3-0.6
		c0-0.3,0-0.5,0-0.8c0.1-0.7-0.4-1.3-1-1.4c-3,0-7.4,0-12.9,0l-42.6,0.1c-0.4,0-0.8,0.3-1,0.6c-0.1,0.2-0.1,0.4-0.1,0.7
		c0,0.2,0,0.5,0,0.7c0.1,0.4,0.4,0.8,0.8,0.9c0.2,0,0.5,0,0.7,0h18h19.1l12.9,0.1h3.5h0.9c0.1,0,0.2,0,0.3,0H160h-0.9h-3.5
		l-12.9,0.1h-19.2h-11.3h-6.7c-0.3,0-0.6,0-0.8-0.1c-0.6-0.2-1-0.7-1.1-1.3c0-0.3,0-0.5,0-0.8c0-0.3,0-0.6,0.2-0.8
		c0.3-0.6,0.8-0.9,1.4-0.9l42.6,0.1c5.5,0,9.8,0,12.9,0.1c0.7,0.2,1.2,0.9,1.1,1.6c0,0.3,0,0.5,0,0.8c-0.1,0.2-0.2,0.4-0.3,0.6
		c-0.2,0.2-0.5,0.4-0.8,0.5C160.6,66.9,160.4,67,160.3,67.1z"/>
	<path id="elojp1nn6fe4p" class="st1" d="M159.5,75.8c0,0.1-12,0.2-26.9,0.2s-26.9-0.1-26.9-0.2s12-0.2,26.9-0.2
		S159.5,75.7,159.5,75.8z"/>
	<path id="elzeq7khv3go" class="st1" d="M159.5,86.3c0,0.1-12,0.2-26.9,0.2s-26.9-0.1-26.9-0.2s12-0.2,26.9-0.2
		S159.5,86.2,159.5,86.3z"/>
	<path id="elul0ew0jfioc" class="st1" d="M159.5,96.8c0,0.1-12,0.2-26.9,0.2s-26.9-0.1-26.9-0.2s12-0.2,26.9-0.2
		S159.5,96.7,159.5,96.8z"/>
	<path id="el5ugs94501gc" class="st1" d="M159.5,107.3c0,0.1-12,0.2-26.9,0.2s-26.9-0.1-26.9-0.2s12-0.2,26.9-0.2
		S159.5,107.2,159.5,107.3z"/>
	<path id="elh9qocdveeyn" class="st1" d="M159.5,117.8c0,0.1-12,0.2-26.9,0.2s-26.9-0.1-26.9-0.2s12-0.2,26.9-0.2
		S159.5,117.7,159.5,117.8z"/>
	<path id="eltorv5s2w27c" class="st1" d="M159.5,128.3c0,0.1-12,0.2-26.9,0.2s-26.9-0.1-26.9-0.2s12-0.2,26.9-0.2
		S159.5,128.2,159.5,128.3z"/>
	<path id="eloph96k6c7j8" class="st1" d="M159.5,138.8c0,0.1-12,0.2-26.9,0.2s-26.9-0.1-26.9-0.2s12-0.2,26.9-0.2
		S159.5,138.7,159.5,138.8z"/>
	<path id="elq2ae2suma1i" class="st1" d="M159.5,149.3c0,0.1-12,0.2-26.9,0.2s-26.9-0.1-26.9-0.2s12-0.2,26.9-0.2
		S159.5,149.2,159.5,149.3z"/>
	<path id="elqkehxmb69h" class="st1" d="M159.5,159.8c0,0.1-12,0.2-26.9,0.2s-26.9-0.1-26.9-0.2s12-0.2,26.9-0.2
		S159.5,159.7,159.5,159.8z"/>
	<path id="el0j5zmcx1t81p" class="st1" d="M159.5,170.4c0,0.1-12,0.2-26.9,0.2s-26.9-0.1-26.9-0.2s12-0.2,26.9-0.2
		S159.5,170.2,159.5,170.4z"/>
	<path id="elfpr8jn6uauj" class="st1" d="M159.5,180.9c0,0.1-12,0.2-26.9,0.2s-26.9-0.1-26.9-0.2s12-0.2,26.9-0.2
		S159.5,180.7,159.5,180.9z"/>
	<path id="elosshzoe9zvl" class="st1" d="M159.5,191.4c0,0.1-12,0.2-26.9,0.2s-26.9-0.1-26.9-0.2s12-0.2,26.9-0.2
		S159.5,191.2,159.5,191.4z"/>
	<path id="el3jcc3fyuqw" class="st1" d="M159.5,201.9c0,0.1-12,0.2-26.9,0.2s-26.9-0.1-26.9-0.2s12-0.2,26.9-0.2
		S159.5,201.8,159.5,201.9z"/>
	<path id="el985m3qeweq7" class="st1" d="M159.5,212.4c0,0.1-12,0.2-26.9,0.2s-26.9-0.1-26.9-0.2s12-0.2,26.9-0.2
		S159.5,212.3,159.5,212.4z"/>
	<path id="el6wyylzgembc" class="st1" d="M159.5,223.2c0,0.1-12,0.2-26.9,0.2s-26.9-0.1-26.9-0.2s12-0.2,26.9-0.2
		S159.5,223.1,159.5,223.2z"/>
	<path id="elyqvhy19rb5j" class="st1" d="M159.5,234c0,0.1-12,0.2-26.9,0.2s-26.9-0.1-26.9-0.2s12-0.2,26.9-0.2
		S159.5,233.9,159.5,234z"/>
	<path id="eljb9i5dcldvq" class="st1" d="M159.5,244.8c0,0.1-12,0.2-26.9,0.2s-26.9-0.1-26.9-0.2s12-0.2,26.9-0.2
		S159.5,244.7,159.5,244.8z"/>
	<path id="elz0wbe8rxcw" class="st1" d="M57.8,256.1c0,0,0-0.3,0-0.9s0-1.6,0-3v-0.1l0,0C69.4,252,111.3,252,161,252h0.2v4.3H161
		l-73.3-0.1l-22-0.1h-6h-1.5L57.8,256.1l0.5,0.1h1.6h6l22.1-0.2l73.1-0.1l-0.2,0.2v-3.9l0.2,0.2l0,0c-49.7,0-91.6-0.1-103.3-0.2
		l0.1-0.1c0,1.3,0,2.3,0,2.9S57.8,256.1,57.8,256.1z"/>
	<polygon id="eltk0g82k5wq" class="st1" points="333.4,200.6 418.3,200.6 427.3,241.3 333.4,241.3 	"/>
	<rect id="elh9vmvqvmbla" x="333.4" y="241" class="st2" width="86.5" height="57.6"/>
	<polygon id="eljcwyq6t74h" class="st0" points="333.4,298.6 333.4,183.6 302.4,129.4 241.3,97 185.6,130.3 155.7,186.1 
		155.7,298.6 	"/>
	<path id="elj2ltq18todg" class="st1" d="M333.8,221c0,0.1-39.9,0.2-89.1,0.2s-89.1-0.1-89.1-0.2s39.9-0.2,89.1-0.2
		S333.8,220.8,333.8,221z"/>
	<path id="elwzcdyb7zib" class="st1" d="M333.8,229.7c0,0.1-39.9,0.2-89.1,0.2s-89.1-0.1-89.1-0.2s39.9-0.2,89.1-0.2
		S333.8,229.6,333.8,229.7z"/>
	<path id="elf1q9nzr54u" class="st1" d="M333.8,238.5c0,0.1-39.9,0.2-89.1,0.2s-89.1-0.1-89.1-0.2s39.9-0.2,89.1-0.2
		S333.8,238.4,333.8,238.5z"/>
	<path id="eljwj1doec3sq" class="st1" d="M333.8,247.3c0,0.1-39.9,0.2-89.1,0.2s-89.1-0.1-89.1-0.2s39.9-0.2,89.1-0.2
		S333.8,247.2,333.8,247.3z"/>
	<path id="elj9k0od9q5p" class="st1" d="M333.8,256.1c0,0.1-39.9,0.2-89.1,0.2s-89.1-0.1-89.1-0.2s39.9-0.2,89.1-0.2
		S333.8,255.9,333.8,256.1z"/>
	<path id="el0q6vvup4w3d" class="st1" d="M333.8,264.8c0,0.1-39.9,0.2-89.1,0.2s-89.1-0.1-89.1-0.2s39.9-0.2,89.1-0.2
		S333.8,264.7,333.8,264.8z"/>
	<path id="elyi5me0avfk" class="st1" d="M333.8,273.6c0,0.1-39.9,0.2-89.1,0.2s-89.1-0.1-89.1-0.2s39.9-0.2,89.1-0.2
		S333.8,273.5,333.8,273.6z"/>
	<rect id="elwc30zp34d7s" x="155.7" y="208.1" class="st3" width="177.8" height="5"/>
	<rect id="elb0kajj7qsg5" x="234.4" y="247.6" class="st1" width="20.9" height="51.4"/>
	<rect id="elsm0i9ycfj" x="155.7" y="281.9" class="st3" width="58.1" height="4.6"/>
	<path id="elkdkmwgru5v" class="st3" d="M159,298.2c-0.2-1.9-0.3-3.9-0.2-5.9c-0.1-2,0-3.9,0.2-5.9
		C159.3,290.4,159.3,294.3,159,298.2L159,298.2z"/>
	<path id="eln99dg2kydpp" class="st3" d="M162.1,298.2c-0.3-3.9-0.3-7.8,0-11.7c0.2,1.9,0.3,3.9,0.2,5.9
		C162.4,294.3,162.3,296.2,162.1,298.2z"/>
	<path id="elwltbd186vwl" class="st3" d="M165.2,298.2c-0.3-3.9-0.3-7.8,0-11.7C165.5,290.4,165.5,294.3,165.2,298.2z"/>
	<path id="el74ldran4g4h" class="st3" d="M168.3,298.2c-0.2-1.9-0.3-3.9-0.2-5.9c-0.1-2,0-3.9,0.2-5.9
		C168.6,290.4,168.6,294.3,168.3,298.2L168.3,298.2z"/>
	<path id="el0dnzcetscegl" class="st3" d="M171.4,298.2c-0.3-3.9-0.3-7.8,0-11.7c0.2,1.9,0.3,3.9,0.2,5.9
		C171.8,294.3,171.7,296.2,171.4,298.2z"/>
	<path id="elfdimd4qx3j" class="st3" d="M174.6,298.2c-0.2-1.9-0.3-3.9-0.2-5.9c-0.1-2,0-3.9,0.2-5.9
		C174.9,290.4,174.9,294.3,174.6,298.2L174.6,298.2z"/>
	<path id="el2isxffi3w9i" class="st3" d="M177.7,298.2c-0.3-3.9-0.3-7.8,0-11.7c0.2,1.9,0.3,3.9,0.2,5.9
		C178,294.3,177.9,296.2,177.7,298.2z"/>
	<path id="elnbfi6tnga1i" class="st3" d="M180.8,298.2c-0.3-3.9-0.3-7.8,0-11.7C181.1,290.4,181.1,294.3,180.8,298.2z"/>
	<path id="el6l329wg419k" class="st3" d="M183.9,298.2c-0.2-1.9-0.3-3.9-0.2-5.9c-0.1-2,0-3.9,0.2-5.9
		C184.2,290.4,184.2,294.3,183.9,298.2L183.9,298.2z"/>
	<path id="elfsxqmlzthh" class="st3" d="M187,298.2c-0.3-3.9-0.3-7.8,0-11.7c0.2,1.9,0.3,3.9,0.2,5.9
		C187.3,294.3,187.2,296.2,187,298.2z"/>
	<path id="el5zylrmjgdxf" class="st3" d="M190.1,298.2c-0.2-1.9-0.3-3.9-0.2-5.9c-0.1-2,0-3.9,0.2-5.9
		C190.4,290.4,190.4,294.3,190.1,298.2L190.1,298.2z"/>
	<path id="elzc71xiptvxk" class="st3" d="M193.3,298.2c-0.3-3.9-0.3-7.8,0-11.7c0.2,1.9,0.3,3.9,0.2,5.9
		C193.6,294.3,193.5,296.2,193.3,298.2z"/>
	<path id="elst3wzshdvz" class="st3" d="M196.4,298.2c-0.3-3.9-0.3-7.8,0-11.7C196.7,290.4,196.7,294.3,196.4,298.2z"/>
	<path id="elnringjppfxb" class="st3" d="M199.5,298.2c-0.2-1.9-0.3-3.9-0.2-5.9c-0.1-2,0-3.9,0.2-5.9
		C199.8,290.4,199.8,294.3,199.5,298.2L199.5,298.2z"/>
	<path id="elbqiifzs46s8" class="st3" d="M202.6,298.2c-0.3-3.9-0.3-7.8,0-11.7c0.2,1.9,0.3,3.9,0.2,5.9
		C202.9,294.3,202.8,296.2,202.6,298.2z"/>
	<path id="eldfzxsvpmoif" class="st3" d="M206.1,298.2c-0.3-3.9-0.3-7.8,0-11.7c0.2,1.9,0.3,3.9,0.2,5.9
		C206.4,294.3,206.4,296.2,206.1,298.2z"/>
	<path id="elasjveobgg1d" class="st3" d="M209.6,298.2c-0.3-3.9-0.3-7.8,0-11.7c0.2,1.9,0.3,3.9,0.2,5.9
		C209.9,294.3,209.9,296.2,209.6,298.2z"/>
	<rect id="elryuubg69y5h" x="277.6" y="281.9" class="st3" width="56.2" height="4.6"/>
	<path id="elvj7r9cgahe" class="st3" d="M290.7,299c-0.2-2.1-0.3-4.1-0.2-6.2c-0.1-2.1,0-4.2,0.2-6.2c0.2,2.1,0.3,4.2,0.2,6.2
		C291,294.9,291,297,290.7,299z"/>
	<path id="elsiww1wxx6ak" class="st3" d="M287.3,299c-0.2-2.1-0.3-4.1-0.2-6.2c-0.1-2.1,0-4.2,0.2-6.2c0.2,2.1,0.3,4.2,0.2,6.2
		C287.6,294.9,287.6,296.9,287.3,299z"/>
	<path id="elsylpkzn4tw" class="st3" d="M284,298.9c-0.2-2.1-0.3-4.2-0.2-6.2c-0.1-2.1,0-4.2,0.2-6.2c0.2,2.1,0.3,4.1,0.2,6.2
		C284.3,294.8,284.2,296.9,284,298.9z"/>
	<path id="el4dkeje7fooy" class="st3" d="M280.3,298.9c-0.2-2.1-0.3-4.2-0.2-6.2c-0.1-2.1,0-4.2,0.2-6.2c0.2,2.1,0.3,4.1,0.2,6.2
		C280.6,294.8,280.5,296.9,280.3,298.9z"/>
	<path id="eldeeduirka19" class="st3" d="M293.9,299c-0.2-2.1-0.3-4.1-0.2-6.2c-0.1-2.1,0-4.2,0.2-6.2c0.2,2.1,0.3,4.2,0.2,6.2
		C294.1,294.9,294.1,297,293.9,299z"/>
	<path id="elt8q7bbi7xkr" class="st3" d="M297,299c-0.2-2.1-0.3-4.1-0.2-6.2c-0.1-2.1,0-4.2,0.2-6.2c0.2,2.1,0.3,4.2,0.2,6.2
		C297.3,294.9,297.2,297,297,299z"/>
	<path id="elzgn2l4u6f8r" class="st3" d="M300.1,299c-0.2-2.1-0.3-4.1-0.2-6.2c-0.1-2.1,0-4.2,0.2-6.2c0.2,2.1,0.3,4.2,0.2,6.2
		C300.4,294.9,300.3,297,300.1,299z"/>
	<path id="elgtmpirjkkae" class="st3" d="M303.2,299c-0.2-2.1-0.3-4.1-0.2-6.2c-0.1-2.1,0-4.2,0.2-6.2c0.2,2.1,0.3,4.2,0.2,6.2
		C303.5,294.9,303.4,297,303.2,299z"/>
	<path id="elpecr6q9dkp" class="st3" d="M306.3,299c-0.2-2.1-0.3-4.1-0.2-6.2c-0.1-2.1,0-4.2,0.2-6.2c0.2,2.1,0.3,4.2,0.2,6.2
		C306.6,294.9,306.5,297,306.3,299z"/>
	<path id="eltjdd68r4hdj" class="st3" d="M309.4,299c-0.2-2.1-0.3-4.1-0.2-6.2c-0.1-2.1,0-4.2,0.2-6.2c0.2,2.1,0.3,4.2,0.2,6.2
		C309.7,294.9,309.6,297,309.4,299z"/>
	<path id="elxk9p9no355t" class="st3" d="M312.5,299c-0.2-2.1-0.3-4.1-0.2-6.2c-0.1-2.1,0-4.2,0.2-6.2c0.2,2.1,0.3,4.2,0.2,6.2
		C312.8,294.9,312.8,297,312.5,299z"/>
	<path id="el021f10wi1fi" class="st3" d="M315.7,299c-0.2-2.1-0.3-4.1-0.2-6.2c-0.1-2.1,0-4.2,0.2-6.2c0.2,2.1,0.3,4.2,0.2,6.2
		C316,294.9,315.9,297,315.7,299z"/>
	<path id="ell265xpt74sc" class="st3" d="M318.8,299c-0.2-2.1-0.3-4.1-0.2-6.2c-0.1-2.1,0-4.2,0.2-6.2c0.2,2.1,0.3,4.2,0.2,6.2
		C319.1,294.9,319,297,318.8,299z"/>
	<path id="elbo1sydlpdl" class="st3" d="M321.9,299c-0.2-2.1-0.3-4.1-0.2-6.2c-0.1-2.1,0-4.2,0.2-6.2c0.2,2.1,0.3,4.2,0.2,6.2
		C322.2,294.9,322.1,297,321.9,299z"/>
	<path id="els0en7t3byr" class="st3" d="M325,299c-0.2-2.1-0.3-4.1-0.2-6.2c-0.1-2.1,0-4.2,0.2-6.2c0.2,2.1,0.3,4.2,0.2,6.2
		C325.3,294.9,325.2,297,325,299z"/>
	<path id="elkt5f24zze3s" class="st3" d="M328.1,299c-0.2-2.1-0.3-4.1-0.2-6.2c-0.1-2.1,0-4.2,0.2-6.2c0.2,2.1,0.3,4.2,0.2,6.2
		C328.4,294.9,328.4,297,328.1,299z"/>
	<path id="eljw5wt2q7g1d" class="st3" d="M331.2,299c-0.2-2.1-0.3-4.1-0.2-6.2c-0.1-2.1,0-4.2,0.2-6.2c0.2,2.1,0.3,4.2,0.2,6.2
		C331.5,294.9,331.5,297,331.2,299z"/>
	<rect id="elu1dk1cltyu" x="168.9" y="254.6" class="st3" width="17.5" height="12.4"/>
	<rect id="elxlbf19y3ams" x="171.4" y="257.1" class="st1" width="12.5" height="7.4"/>
	<rect id="elmtv0jd36b3f" x="307" y="254.6" class="st3" width="17.5" height="12.4"/>
	<rect id="el7mi6lxo9d59" x="309.5" y="257.1" class="st1" width="12.5" height="7.4"/>
	<rect id="elsjg1x5czm89" x="213.8" y="246.4" class="st3" width="31.7" height="52.6"/>
	<path id="el3ptlzq4cxi" class="st1" d="M217,250c0,0.3,0.4,42.8,0.4,42.8l10.6-21.4L217,250z"/>
	<path id="eljej3bxm3orq" class="st1" d="M242.7,250c0,0.3-0.4,42.8-0.4,42.8l-10.6-21.4L242.7,250z"/>
	<polygon id="elu149r8iy3c" class="st1" points="219.4,246.4 230,267.8 241.1,246.4 	"/>
	<polygon id="elyvq6uzyban" class="st1" points="240.4,296.4 229.8,275.8 219.4,296.4 	"/>
	<path id="el5yuk994y8qj" class="st1" d="M213.8,299.6c-0.1,0-0.2-11.8-0.2-26.4s0.1-26.4,0.2-26.4s0.2,11.8,0.2,26.4
		S213.9,299.6,213.8,299.6z"/>
	<path id="eln7xtlyaqtz9" class="st1" d="M333.8,200.5c0,0.1-39.9,0.2-89.1,0.2s-89.1-0.1-89.1-0.2s39.9-0.2,89.1-0.2
		S333.8,200.4,333.8,200.5z"/>
	<path id="eld91v30ei498" class="st1" d="M333.8,190.8c0,0.1-39.9,0.2-89.1,0.2s-89.1-0.1-89.1-0.2s39.9-0.2,89.1-0.2
		S333.8,190.7,333.8,190.8z"/>
	<path id="elm531ln0w6m" class="st1" d="M333.8,181.1c0,0.1-39.9,0.2-89.1,0.2s-89.1-0.1-89.1-0.2s39.9-0.2,89.1-0.2
		S333.8,181,333.8,181.1z"/>
	<path id="el6hpsey8whnx" class="st1" d="M329.8,171.3c0,0.1-38.2,0.2-85.4,0.2s-85.4-0.1-85.4-0.2s38.2-0.2,85.4-0.2
		S329.8,171.2,329.8,171.3z"/>
	<path id="elxsc60alg1v" class="st1" d="M321.9,161.6c0,0.1-34.4,0.2-76.7,0.2s-76.8-0.1-76.8-0.2s34.4-0.2,76.8-0.2
		S321.9,161.5,321.9,161.6z"/>
	<path id="elgecxvmvohie" class="st1" d="M318.8,151.9c0,0.1-33.7,0.2-75.2,0.2s-75.2-0.1-75.2-0.2s33.6-0.2,75.2-0.2
		S318.8,151.8,318.8,151.9z"/>
	<path id="el5mtwf1zwi6y" class="st1" d="M310.1,142.1c0,0.1-30.3,0.2-67.6,0.2s-67.6-0.1-67.6-0.2s30.3-0.2,67.6-0.2
		S310.1,142,310.1,142.1z"/>
	<path id="elvr6ndg16bxb" class="st1" d="M307.7,132.4c0,0.1-28.9,0.2-64.4,0.2s-64.5-0.1-64.5-0.2s28.9-0.2,64.5-0.2
		S307.7,132.3,307.7,132.4z"/>
	<path id="el0cnwvc5hp10u" class="st1" d="M292.3,122.7c0,0.1-21.8,0.2-48.7,0.2s-48.7-0.1-48.7-0.2s21.8-0.2,48.7-0.2
		S292.3,122.5,292.3,122.7z"/>
	<path id="elixwv91jtbr9" class="st1" d="M273.2,112.9c-0.2,0-0.4,0-0.7,0h-1.9l-7,0.1l-23,0.1l-23-0.1l-7-0.1h-1.9
		c-0.2,0-0.4,0-0.7,0c0.2,0,0.4,0,0.7,0h1.9l7-0.1l23-0.1l23,0.1l7,0.1h1.9C272.8,112.9,273,112.9,273.2,112.9z"/>
	<path id="elhabro6y819" class="st1" d="M258,103.2c0,0.1-7,0.2-15.6,0.2s-15.5-0.1-15.5-0.2s7-0.2,15.5-0.2S258,103.1,258,103.2z"
		/>
	<polygon id="el5g7kdkakkb2" class="st0" points="339.4,185.1 304.5,127.1 240.5,92.7 179.9,129 149.7,186.3 154.9,188.3 
		154.9,187.2 184.8,131.5 240.5,98.4 301.6,130.7 332.6,184.6 332.6,185.8 	"/>
	<path id="elhxty9bifkhi" class="st1" d="M339.4,185.1l-6.8,0.7h0v-0.1c0-0.3,0-0.7,0-1.1l0,0l-31.1-53.9l0,0.1l-61.2-32.2h0.2
		l-55.6,33.2l0.1-0.1l-29.9,55.6v-0.1v1.5l-0.3-0.1l-5.2-2.1l-0.2-0.1l0.1-0.2c0.1-0.2,0.3-0.5,0.4-0.8l29.8-56.5v-0.1h0.1
		l60.6-36.3l0.1-0.1l0.1,0.1l63.9,34.4l0,0l0,0l34.8,58.1l-35-58h0l-64-34.3h0.2L180,129.2l0.1-0.1l-29.8,56.5
		c-0.1,0.3-0.3,0.5-0.4,0.8l-0.1-0.3l5.2,2.1l-0.3,0.2v-1.2l0,0l29.9-55.6v-0.1l0,0l55.7-33.1h0.1h0.1l61.1,32.3l0,0l0,0l30.9,54
		l0,0c0,0.4,0,0.8,0,1.1h0L339.4,185.1z"/>
	<rect id="elrh4lygb0brc" x="228.7" y="180.8" class="st2" width="28.7" height="4.9"/>
	<rect id="elgy46ksm3spc" x="231.2" y="138.3" class="st2" width="23.7" height="45"/>
	<rect id="elzfxkq19abcj" x="233.5" y="140.5" class="st3" width="19.1" height="40.4"/>
	<path id="elkagg58zf5z" class="st1" d="M252.6,180.7c-0.1,0-0.2,0-0.3,0h-1h-3.8l-14.1,0.1h-0.2v-0.2c0-10.4,0-24.5-0.1-39.9
		l0.2-0.2h19.4v0.2c-0.1,11.6-0.1,21.6-0.1,28.8c0,3.5,0,6.3,0,8.3c0,0.9,0,1.7,0,2.2c0,0.2,0,0.4,0,0.6S252.7,180.6,252.6,180.7
		c0.1-0.2,0.1-0.2,0.1-0.3c0-0.1,0-0.3,0-0.6c0-0.5,0-1.3,0-2.2c0-2,0-4.8-0.1-8.3c0-7.1-0.1-17-0.1-28.6l0.2,0.2h-19.3
		c-0.1,0,0.4-0.4,0.2-0.2c0,15.4,0,29.5-0.1,39.9l-0.2-0.2l14,0.1h3.8h1L252.6,180.7z"/>
	<rect id="elz451joef678" x="231.2" y="159.4" class="st1" width="23.7" height="2.2"/>
	<path id="el52604whf9yt" class="st1" d="M254.9,161.6c0-0.2,0-0.4,0-0.6c0-0.4,0-0.9-0.1-1.6l0.1,0.1c-4,0.1-13.1,0.1-23.7,0.1l0,0
		c-0.1,0,0.4-0.4,0.2-0.2l0,0v2.2l-0.2-0.2c6.6,0,12.5,0.1,16.8,0.1l5.1,0.1h1.4L254.9,161.6c-0.1-0.1-0.3-0.1-0.4-0.1h-1.3l-5,0.1
		c-4.3,0-10.2,0.1-16.9,0.1H231v-2.4l0,0l0.2-0.2l0,0c10.6,0,19.7,0.1,23.7,0.1h0.1v0.1c0,0.7,0,1.2-0.1,1.6
		C255,161.2,254.9,161.4,254.9,161.6z"/>
	<path id="el9hkae561apt" class="st1" d="M256.6,180.8c0,0.1-6.3,0.2-14,0.2s-14-0.1-14-0.2s6.3-0.2,14-0.2S256.6,180.7,256.6,180.8
		z"/>
	<g id="elgx5lft693i">
		<rect id="elg1ct18usmyb" x="245.9" y="246.4" class="st3" width="31.7" height="52.6"/>
	</g>
	<path id="el6fi9th7a5ua" class="st1" d="M274.3,250c0,0.3-0.4,42.8-0.4,42.8l-10.6-21.4L274.3,250z"/>
	<path id="eldaohb4kionq" class="st1" d="M248.6,250c0,0.3,0.4,42.8,0.4,42.8l10.6-21.4L248.6,250z"/>
	<polygon id="elzc62gz56i8" class="st1" points="272,246.4 261.3,267.8 250.3,246.4 	"/>
	<polygon id="elcrotc8uncmb" class="st1" points="250.9,296.5 261.6,275.9 272,296.5 	"/>
	<path id="eluny1yrkanl" class="st1" d="M277.7,299c-0.1,0-0.2-11.8-0.2-26.3s0.1-26.3,0.2-26.3s0.2,11.8,0.2,26.3
		S277.8,299,277.7,299z"/>
	<path id="eluwy0w7fy90d" class="st1" d="M155.7,298.2c-0.1,0-0.2-25.1-0.2-56.2s0.1-56.2,0.2-56.2s0.2,25.1,0.2,56.2
		S155.8,298.2,155.7,298.2z"/>
	<path id="ellxpxvl89ep" class="st1" d="M333.7,298.2c-0.1,0-0.2-25.2-0.2-56.3s0.1-56.4,0.2-56.4s0.2,25.2,0.2,56.4
		S333.8,298.2,333.7,298.2z"/>
	<path id="eliq8ewf1t8l" class="st1" d="M419.6,247.6c0,0.1-19.4,0.2-43.3,0.2s-43.3-0.1-43.3-0.2s19.4-0.2,43.3-0.2
		S419.6,247.4,419.6,247.6z"/>
	<path id="ellbf89rm72pg" class="st1" d="M419.6,256.1c0,0.1-19.4,0.2-43.3,0.2s-43.3-0.1-43.3-0.2s19.4-0.2,43.3-0.2
		S419.6,255.9,419.6,256.1z"/>
	<path id="el7n8hjr6vew" class="st1" d="M419.6,264.8c0,0.1-19.2,0.2-42.8,0.2S334,265,334,264.8s19.2-0.2,42.8-0.2
		S419.6,264.7,419.6,264.8z"/>
	<path id="el1l470sl6cn6" class="st1" d="M419.6,273.6c0,0.1-19.2,0.2-42.9,0.2s-42.9-0.1-42.9-0.2s19.2-0.2,42.9-0.2
		S419.6,273.5,419.6,273.6z"/>
	<path id="elres9m12assl" class="st1" d="M419.6,281.6c0,0.1-19.2,0.2-42.9,0.2s-42.9-0.1-42.9-0.2s19.2-0.2,42.9-0.2
		S419.6,281.5,419.6,281.6z"/>
	<path id="eln81qrdmdmd" class="st1" d="M419.6,290.1c0,0.1-19.2,0.2-42.9,0.2s-42.9-0.1-42.9-0.2s19.2-0.2,42.9-0.2
		S419.6,290,419.6,290.1z"/>
	<rect id="el4hcg4y7wrj8" x="198.9" y="241.3" class="st3" width="94.1" height="5.4"/>
	<path id="ellnsvonhzmrb" class="st1" d="M293.2,246.7c0,0.1-21.1,0.2-47.1,0.2s-47.1-0.1-47.1-0.2s21.1-0.2,47.1-0.2
		S293.2,246.6,293.2,246.7z"/>
	<rect id="elub6sop24stm" x="21.1" y="274.7" class="st1" width="456.7" height="5.3"/>
	<rect id="elidftemukjuq" x="21.1" y="293.5" class="st1" width="456.7" height="5.3"/>
	<rect id="el4zdtwiqp1l4" x="43.7" y="270.8" class="st1" width="7" height="65.5"/>
	<rect id="ellgvj6gmj4fa" x="136.7" y="270.8" class="st1" width="7" height="65.5"/>
	<rect id="ele9gdazneuo" x="236.5" y="270.8" class="st1" width="7" height="65.5"/>
	<rect id="elet4dzu4vf0l" x="336.3" y="270.8" class="st1" width="7" height="65.5"/>
	<rect id="elee2t67o810u" x="436.1" y="270.8" class="st1" width="7" height="65.5"/>
</g>
<g id="freepik--Floor--inject-139">
	<path id="elzhr449cqmz" class="st4" d="M469.9,411.7c0,0.1-98.1,0.3-219,0.3s-219-0.1-219-0.3s98-0.3,219-0.3
		S469.9,411.6,469.9,411.7z"/>
</g>
<g id="freepik--Plants--inject-139">
	<path id="elczgj1x2z1dw" class="st5" d="M172.8,443.3c1.7,0.8,3,2.3,3.6,4.1c0.6,1.8,0.8,3.7,0.5,5.6c-0.4,3.6-2.5,7.3-4.7,10.1
		c-3-2.7-3.7-7.3-3.9-9.6C167.9,449.7,169.6,442.7,172.8,443.3"/>
	<path id="eltj9xb54gbvf" class="st5" d="M175.7,469c-0.4-2.1,0.3-4.3,1.9-5.7c1.6-1.4,3.7-2,5.8-1.8c1,0,1.9,0.4,2.6,1.1
		c0.5,0.8,0.5,1.8,0,2.6c-0.5,0.8-1.1,1.4-1.9,1.9C181.5,468.8,178.7,469.9,175.7,469"/>
	<path id="elaae665b2yso" class="st4" d="M171.8,480.1c0-0.2,0.1-0.5,0.1-0.7c0.1-0.5,0.2-1.2,0.4-2c0.3-2.2,1-4.4,2.1-6.4
		c1.1-2,2.7-3.7,4.6-4.9c0.6-0.4,1.2-0.6,1.9-0.8c0.2-0.1,0.4-0.1,0.5-0.1h0.2c-0.9,0.3-1.7,0.7-2.5,1.2c-1.9,1.2-3.4,2.9-4.5,4.9
		c-1,2-1.7,4.1-2.1,6.3c-0.2,0.8-0.3,1.5-0.4,2C172,479.7,171.9,479.9,171.8,480.1z"/>
	<path id="elxiyebz8oe8j" class="st4" d="M171.9,448.7c0,0.1,0,0.2,0,0.3c0,0.2,0,0.5,0.1,0.9c0,0.8,0.1,2,0.1,3.4
		c0.1,2.9,0.2,6.9,0.1,11.3s-0.1,8.4-0.3,11.3c-0.1,1.5-0.1,2.6-0.2,3.4c0,0.4,0,0.7-0.1,0.9c0,0.1,0,0.2,0,0.3c0-0.1,0-0.2,0-0.3
		c0-0.2,0-0.5,0-0.9c0-0.8,0-2,0.1-3.4c0.1-2.9,0.1-6.9,0.2-11.3s0-8.4-0.1-11.3c0-1.4,0-2.6,0-3.4c0-0.4,0-0.7,0-0.9
		C172,448.9,171.9,448.8,171.9,448.7z"/>
	<path id="elmxhjn3n1w4e" class="st5" d="M170.5,471.3c-0.7-4.4-3.6-8.3-7.6-10.3c-1-0.5-2.3-0.8-3.2,0s-0.6,2.1-0.2,3.2
		c1.8,4.5,6.2,7.4,11,7.4"/>
	<path id="elkiiq367vrvn" class="st4" d="M163.3,464.5c0.2,0.1,0.4,0.2,0.6,0.3c0.3,0.1,0.5,0.2,0.7,0.4c0.3,0.2,0.6,0.3,0.9,0.6
		c0.4,0.2,0.7,0.5,1.1,0.8c0.4,0.3,0.7,0.6,1.1,1c0.8,0.8,1.5,1.8,2.1,2.8c0.6,1,1.1,2.1,1.4,3.2c0.1,0.5,0.3,1,0.4,1.5
		c0.1,0.4,0.2,0.9,0.2,1.3c0.1,0.4,0,0.8,0.1,1.1c0,0.3,0,0.6,0,0.8c0,0.2,0,0.5-0.1,0.7c-0.1,0,0-1-0.1-2.6c0-0.4-0.1-0.9-0.2-1.3
		c-0.1-0.5-0.2-1-0.4-1.5c-0.3-1.1-0.8-2.1-1.4-3.1c-0.6-1-1.3-1.9-2.1-2.7c-0.4-0.4-0.7-0.7-1.1-1s-0.7-0.6-1-0.8
		C164.2,464.9,163.3,464.5,163.3,464.5z"/>
	<path id="el3v40kq8c53z" class="st4" d="M237.1,411.1c-0.2-2.4-0.7-4.7-1.5-7c-0.9-2.2-2.1-4.3-3.5-6.2c0.6,0.4,1.1,0.9,1.5,1.5
		c2.1,2.7,3.4,6,3.6,9.5C237.3,409.7,237.3,410.4,237.1,411.1z"/>
	<path id="el0fnqli21pfel" class="st4" d="M244.2,389.8c0.1,0-0.5,1.2-1.2,3.1c-1.9,5-2.5,10.3-1.8,15.6c0.3,2,0.6,3.2,0.5,3.3
		c-0.1-0.3-0.2-0.5-0.3-0.8c-0.2-0.8-0.4-1.6-0.6-2.4c-0.9-5.3-0.3-10.8,1.8-15.8c0.3-0.7,0.7-1.5,1.1-2.2
		C244,390.1,244.1,389.8,244.2,389.8z"/>
	<path id="el82g2zablmah" class="st4" d="M254.4,398.5c0.1,0.1-2,2.7-4,6.3s-3.2,6.7-3.4,6.7c0.1-0.7,0.3-1.4,0.6-2.1
		c1.3-3.3,3.1-6.4,5.3-9.2C253.3,399.5,253.8,399,254.4,398.5z"/>
	<path id="elocxw62hpku9" class="st4" d="M442.8,475.5c-0.3-0.8-0.4-1.7-0.6-2.6c-0.4-2.1-1-4.1-1.7-6.1c-0.7-2-1.5-4-2.5-5.9
		c-0.4-0.8-0.8-1.6-1.2-2.4c0.6,0.7,1.1,1.4,1.5,2.2c2.1,3.7,3.5,7.8,4.2,12.1C442.8,473.7,442.9,474.6,442.8,475.5z"/>
	<path id="elycsbx6mdaqq" class="st4" d="M447.9,472.8c-0.4-1.1-0.7-2.1-0.9-3.3c-0.5-2-1.1-4.9-1.6-8s-0.9-6-1-8.1
		c-0.1-1.1-0.2-2.3-0.1-3.4c0.2,1.1,0.4,2.2,0.5,3.4c0.3,2.1,0.7,4.9,1.2,8.1s1.1,6,1.5,8C447.5,470.6,447.7,471.7,447.9,472.8z"/>
	<path id="el6g3td7qa53v" class="st4" d="M457,458.1c0.1,0-0.6,0.9-1.5,2.4c-2.4,3.9-3.8,8.3-4.3,12.8c-0.2,1.7-0.1,2.8-0.2,2.8
		c-0.1-0.2-0.1-0.5-0.1-0.8c0-0.7,0-1.4,0-2.1c0.2-4.6,1.7-9.2,4.3-13c0.4-0.6,0.8-1.1,1.3-1.7C456.8,458.3,457,458.1,457,458.1z"/>
	<path id="elunlgpctm1to" class="st4" d="M314.1,454c-0.3-0.9-0.5-1.7-0.6-2.6c-1-4.2-2.8-8.2-5.3-11.8c-0.6-0.7-1.1-1.5-1.5-2.2
		c0.7,0.6,1.3,1.3,1.8,2c2.7,3.5,4.5,7.6,5.4,12C314,452.2,314.1,453.1,314.1,454z"/>
	<path id="elqd9it4eeh8e" class="st4" d="M316.9,453.3c-0.1,0-0.9-4.8-1.8-10.8s-1.4-10.9-1.3-10.9s0.9,4.8,1.8,10.8
		S317,453.3,316.9,453.3z"/>
	<path id="elr730ok09oh" class="st4" d="M325,438.7c-0.4,0.8-0.8,1.5-1.3,2.2c-1,1.8-1.9,3.6-2.6,5.6c-0.7,1.9-1.2,4-1.5,6
		c-0.1,0.9-0.2,1.7-0.4,2.5c-0.1-0.9-0.1-1.7,0-2.6c0.5-4.2,1.9-8.2,4.3-11.7C323.9,440,324.4,439.3,325,438.7z"/>
	<path id="elckjyxu1iija" class="st4" d="M40.9,470.9c-0.3-0.9-0.6-1.9-0.8-2.9c-0.6-2.3-1.4-4.6-2.5-6.7c-1-2.2-2.2-4.2-3.6-6.2
		c-0.6-0.8-1.2-1.6-1.7-2.4c0,0,0.2,0.2,0.6,0.5c0.5,0.5,1,1.1,1.4,1.7c1.5,1.9,2.8,4,3.8,6.2c1,2.2,1.8,4.5,2.3,6.9
		c0.2,0.9,0.3,1.6,0.4,2.2C40.9,470.4,40.9,470.6,40.9,470.9z"/>
	<path id="elizyx7arsl1" class="st4" d="M45.4,469.9c-0.3-1-0.5-2.1-0.6-3.1c-0.3-1.9-0.8-4.6-1.6-7.5s-1.5-5.5-2.1-7.4
		c-0.4-1-0.7-2-0.9-3c0.5,0.9,1,1.9,1.3,2.9c0.9,2.4,1.7,4.9,2.3,7.4c0.6,2.5,1.1,5,1.4,7.6C45.3,467.7,45.4,468.8,45.4,469.9z"/>
	<path id="ely6j6c8ox8nh" class="st4" d="M55.2,452.2c-0.4,0.9-0.9,1.8-1.4,2.7c-2.2,4.3-3.7,8.9-4.3,13.7c-0.1,1-0.2,2-0.4,3
		c-0.1-0.3-0.1-0.5-0.1-0.8c0-0.5,0-1.3,0.1-2.2c0.2-2.4,0.7-4.8,1.4-7.2c0.7-2.3,1.7-4.6,2.9-6.7c0.5-0.8,0.9-1.5,1.2-1.9
		S55.2,452.1,55.2,452.2z"/>
</g>
<g id="freepik--Truck--inject-139">
	<rect id="elnzcjr6fko7f" x="363.8" y="331.7" class="st5" width="100.9" height="35.8"/>
	<path id="el1uh419gj5jl" class="st4" d="M464.8,367.5H363.8v-35.8h100.9V367.5z M363.9,367.5h100.8v-35.7H363.9V367.5z"/>
	<g id="elsdhm85a3kvs">
		<g id="el91apwupikyh" class="st6">
			<rect id="eln442758gwc" x="363.8" y="331.7" width="100.9" height="35.8"/>
		</g>
	</g>
	<path id="elc7yjjpyx38" class="st1" d="M466.9,344.7h6.5c1.4,0,2.5,1.1,2.5,2.5V365c0,1.4-1.1,2.5-2.5,2.5h-6.5
		c-1.4,0-2.5-1.1-2.5-2.5v-17.7C464.3,345.8,465.5,344.7,466.9,344.7z"/>
	<path id="elnoj21centzp" class="st4" d="M473.4,367.5c0,0,0.2,0,0.6-0.1c0.6-0.2,1.1-0.6,1.4-1.1c0.2-0.4,0.4-0.8,0.4-1.2
		c0-0.5,0-1,0-1.6c0-1.2,0-2.5,0-3.9c0-2.9,0-6.4-0.1-10.2v-1.5c0-0.5,0-0.9-0.1-1.4c-0.3-0.9-1.2-1.5-2.1-1.5h-6.5
		c-1,0-1.9,0.7-2.2,1.7c-0.1,0.5-0.1,1-0.1,1.5c0,0.5,0,1,0,1.6c0,2.1,0,4.1,0,6s0,3.7,0,5.5c0,0.9,0,1.7,0,2.5
		c-0.1,0.7,0,1.5,0.2,2.2c0.3,0.6,0.8,1.1,1.4,1.3c0.6,0.1,1.2,0.2,1.8,0.1h3l1.9,0c0.2,0,0.4,0,0.6,0c-0.2,0-0.4,0-0.6,0l-1.9,0
		l-3,0c-0.6,0.1-1.3,0-1.9-0.1c-0.7-0.2-1.3-0.8-1.6-1.4c-0.2-0.4-0.3-0.8-0.2-1.2c0-0.4,0-0.8,0-1.2c0-0.8,0-1.6,0-2.5
		c0-1.7,0-3.5,0-5.5s0-3.9,0-6v-1.6c0-0.6,0-1.1,0.1-1.7c0.3-1.2,1.4-2,2.7-2h6.5c1.2,0,2.2,0.7,2.6,1.8c0.2,0.5,0.2,1,0.2,1.6
		c0,0.5,0,1,0,1.5c0,3.8,0,7.3,0,10.2c0,1.5,0,2.8,0,3.9c0,0.6,0,1.1,0,1.6c0,1.2-0.9,2.1-2,2.4C474,367.5,473.7,367.5,473.4,367.5z
		"/>
	<path id="el3x4z320lghr" class="st5" d="M230,284.9v-38.3c0-12.8,10.4-23.2,23.2-23.2c0,0,0,0,0,0h57.9c0,0,16.1-1.8,22.5,12
		s21.4,41.7,21.4,41.7s59.8,0.2,84,9c22.2,8,19.2,24.4,19.2,24.4c0.9,1.5,0.1,12,0.1,12l-99,15l-15,22.4H230.7L230,284.9z"/>
	<rect id="elsgx91znal1g" x="457" y="307.5" class="st1" width="7.4" height="45"/>
	<path id="elscd9biwrmlq" class="st4" d="M464.3,352.5c0-0.1,0-0.2,0-0.2c0-0.2,0-0.4,0-0.7c0-0.6,0-1.5,0-2.6c0-2.3,0-5.5-0.1-9.5
		c0-8.1-0.1-19.3-0.1-31.9l0.3,0.3H457l0.3-0.3l0,0v7.1c0,2.3,0,4.6,0,6.8c0,4.4,0,8.6,0,12.5c0,7.7-0.1,14.1-0.1,18.6l-0.1-0.1
		l5.4,0.1h1.4L464.3,352.5c-0.1-0.1-0.3-0.1-0.4-0.1h-1.4l-5.5,0.1h-0.1v-0.1c0-4.5,0-10.9-0.1-18.6c0-3.9,0-8,0-12.5
		c0-2.2,0-4.5,0-6.8v-7.1l0,0c0.1-0.1-0.3,0.3,0.3-0.3h7.6v0.3c0,12.7-0.1,24-0.1,32.1c0,4,0,7.2-0.1,9.5c0,1.1,0,1.9,0,2.5
		c0,0.3,0,0.5,0,0.6C464.5,352.3,464.4,352.4,464.3,352.5z"/>
	<path id="eltfjex8kjo6t" class="st4" d="M381.9,311.1c-0.2,0-0.4,0-0.6,0l-1.8,0l-6.8,0.1l-10.1,0.1h-2.9c-1,0-2.1-0.2-3.1-0.5
		c-2.1-0.6-4-1.9-5.3-3.7c-1.3-1.7-2.1-3.9-2.1-6.1c0-2.1,0-4.1-0.1-6s-0.1-3.7,0.1-5.4c0.2-1.6,0.6-3.1,1.2-4.6
		c0.8-2.1,1.9-4.1,3.1-6.1c0.4-0.7,0.8-1.2,1-1.5c0.1-0.2,0.3-0.3,0.4-0.5c-0.1,0.2-0.2,0.4-0.3,0.6l-1,1.6c-1.2,1.9-2.1,4-3,6.1
		c-0.5,1.5-0.9,3-1.1,4.5c-0.1,1.6,0,3.5,0,5.4s0.1,3.9,0.1,6c0,2.1,0.7,4.1,2,5.8c1.3,1.7,3,2.9,5,3.5c1.9,0.4,3.9,0.6,5.8,0.4
		l10.1,0.1l6.8,0.1l1.8,0C381.4,311,381.7,311,381.9,311.1z"/>
	<rect id="eluwwvbuf1qpb" x="164.4" y="359.3" class="st4" width="181.1" height="11.1"/>
	<g id="elb4oyrcc5dq5">
		<g id="el9gxgfn1fm6g" class="st6">
			<path id="elo1xp7ol35g" d="M368,311c-11.4,5.8-21,14.7-27.6,25.7c-3,5.1-5.5,10.8-5.9,16.7s1.2,12.2,5.4,16.5l65.2-65.9
				C392.3,302.8,379.5,305.2,368,311z"/>
		</g>
	</g>
	<path id="elnh78i8huwut" class="st5" d="M381,352.8c2.2-3.9,5-7.4,8.4-10.3c7.4-6.1,13.9-8.9,23-9.3c8-0.4,18.7,1.6,27.1,9
		c7,6.3,11.6,11.8,17.9,18.8c0.5,0.5,1,1,1.6,1.4c5,3.3,9.3-1.9,10.8-6.5c3.7-11.6,0.1-24.8-7.8-34s-19.5-14.7-31.5-16.7
		c-13.2-2-26.6-1.6-39.6,1c-14.8,3.3-22.5,6.2-34.2,17.2c-7.8,7.4-21.2,27.1-18.6,42.4c0,0,3.5,12.7,17.3,10.7s17.2-9.1,19.9-13.4
		C377,360.3,378.8,356.7,381,352.8z"/>
	<path id="elxnn09im2htc" class="st4" d="M381,352.8l-0.5,0.9l-1.5,2.7c-0.6,1.2-1.4,2.7-2.4,4.4c-0.5,0.9-1,1.8-1.6,2.7s-1.2,2-2,3
		c-0.8,1.1-1.6,2.2-2.6,3.1c-1.1,1.1-2.2,2-3.5,2.8c-2.9,1.8-6.1,3-9.4,3.6c-1.8,0.4-3.7,0.6-5.6,0.6c-0.5,0-1,0-1.5-0.1l-1.5-0.3
		c-0.5-0.1-1-0.2-1.5-0.4c-0.5-0.1-1-0.3-1.4-0.6c-4-1.9-7-5.5-8.3-9.7l0,0c-0.6-4.3-0.3-8.6,0.9-12.7c1.2-4.4,3-8.7,5.2-12.8
		c2.3-4.3,5.1-8.4,8.2-12.2c1.6-2,3.4-3.9,5.3-5.6c1.9-1.8,3.9-3.5,6-5.1c4.3-3.3,9.1-6,14.3-7.8c5.4-1.8,10.9-3.2,16.4-4.3
		c11.7-2,23.7-2.1,35.5-0.5c6.3,0.9,12.3,2.8,18,5.6c5.5,2.7,10.5,6.5,14.5,11.2c7.9,9.2,11.2,21.7,8.5,32.5
		c-0.5,2.7-1.8,5.3-3.7,7.3c-0.9,1-2.1,1.8-3.5,2.1c-1.4,0.3-2.8,0.1-4-0.6c-1.2-0.7-2.2-1.5-3-2.6l-2.6-2.9c-1.7-1.9-3.3-3.8-5-5.6
		c-3.2-3.5-6.5-6.9-10.1-10c-3.3-2.8-7.2-5-11.3-6.4c-7.1-2.4-14.8-2.9-22.1-1.3c-5.5,1.4-10.7,4-15,7.6c-2.8,2.2-5.3,4.9-7.3,7.8
		c-0.7,1-1.2,1.8-1.5,2.3s-0.5,0.8-0.5,0.8c0.6-1.1,1.3-2.2,2-3.2c2-3,4.4-5.7,7.3-7.9c4.4-3.7,9.6-6.3,15.2-7.7
		c7.4-1.6,15.1-1.2,22.3,1.2c4.2,1.4,8,3.6,11.4,6.4c3.6,3.1,7,6.5,10.1,10c1.7,1.8,3.3,3.7,5,5.6l2.6,2.9c0.8,1,1.7,1.9,2.9,2.5
		c1.1,0.6,2.4,0.8,3.6,0.6c1.3-0.3,2.4-1,3.3-2c1.8-2,3-4.5,3.6-7.1c2.7-10.7-0.6-23-8.4-32.1c-4-4.6-8.9-8.3-14.4-11
		c-5.6-2.8-11.7-4.7-17.9-5.6c-11.7-1.6-23.6-1.5-35.3,0.5c-5.5,1-11,2.4-16.3,4.2c-5.1,1.8-9.9,4.4-14.2,7.7c-2.1,1.6-4.1,3.3-6,5
		c-1.9,1.7-3.6,3.6-5.2,5.5c-3.1,3.8-5.8,7.9-8.1,12.1c-2.2,4-4,8.3-5.2,12.7c-1.2,4.1-1.5,8.4-0.9,12.6l0,0
		c1.3,4.2,4.2,7.6,8.1,9.5c0.5,0.2,0.9,0.4,1.4,0.5c0.5,0.2,0.9,0.3,1.4,0.4l1.5,0.3c0.5,0,1,0,1.5,0.1c1.9,0,3.7-0.2,5.5-0.6
		c3.3-0.6,6.5-1.8,9.3-3.5c1.2-0.8,2.4-1.7,3.5-2.8c0.9-1,1.8-2,2.6-3.1c0.7-1,1.4-2.1,2-3s1.2-1.9,1.6-2.7c1-1.7,1.8-3.2,2.4-4.3
		s1.2-2.1,1.5-2.7S381,352.8,381,352.8z"/>
	<path id="elpm4l3ku9ns" class="st4" d="M367.5,349.5c0,0.1-4.9,0.3-10.9,0.3s-10.9-0.1-10.9-0.3s4.9-0.3,10.9-0.3
		S367.5,349.3,367.5,349.5z"/>
	<path id="ellck6dyzol5" class="st4" d="M365.7,355.7c0,0.1-4.9,0.3-10.9,0.3s-10.9-0.1-10.9-0.3s4.9-0.3,10.9-0.3
		S365.7,355.6,365.7,355.7z"/>
	<path id="elilj2staumn9" class="st4" d="M363.8,362c0,0.1-4.9,0.3-10.9,0.3s-10.9-0.1-10.9-0.3s4.9-0.3,10.9-0.3
		S363.8,361.8,363.8,362z"/>
	<path id="elkfj6ngfn5u" class="st5" d="M47,341.6h29.6c3.2,0,3.2-5,0-5H47C43.8,336.6,43.8,341.6,47,341.6z"/>
	<path id="elso8w8lt9dii" class="st5" d="M44.5,347.9h29.6c3.2,0,3.2-5,0-5H44.5C41.3,342.9,41.3,347.9,44.5,347.9z"/>
	<path id="elj2d8nmbu8ug" class="st5" d="M42,354.1h29.6c3.2,0,3.2-5,0-5H42C38.8,349.1,38.8,354.1,42,354.1z"/>
	<path id="elvss43f43qxi" class="st1" d="M353.7,303h-11.3c-1.6,0-2.9-1.3-3-3l0,0c0-1.6,1.3-3,3-3h11.3c1.7,0,3,1.3,3,3l0,0
		C356.7,301.7,355.3,303,353.7,303z"/>
	<path id="eludvgw80ep9" class="st7" d="M320.8,274.2c-1.5-8.1-6.6-20.8-9.7-25.2s-7.3-5.7-13.2-6.4s-32-0.1-32-0.1
		c-0.6,0-10.5-0.5-10.6,13c0,14.4,0.4,19.4,0.4,19.4s0,9,9.2,9h47.8c4.5,0,8.2-3.7,8.3-8.2c0-0.5,0-0.9-0.1-1.4
		C320.9,274.3,320.9,274.3,320.8,274.2z"/>
	<path id="el3chgjvqu62g" class="st4" d="M320.8,274.2c0,0.1,0.1,0.2,0.1,0.4c0.1,0.4,0.1,0.7,0.1,1.1c0.1,1.5-0.3,2.9-1,4.2
		c-1.2,2.1-3.1,3.5-5.5,4.1c-1.4,0.2-2.9,0.3-4.4,0.2h-4.9l-24.4,0.1h-14.6c-0.6,0-1.3,0-1.9,0l-1-0.1c-0.3,0-0.6-0.1-1-0.2
		c-0.7-0.1-1.3-0.3-1.9-0.6c-0.6-0.3-1.2-0.7-1.7-1.1c-2.1-1.9-3.3-4.5-3.4-7.3l0,0c-0.3-5.8-0.4-11.9-0.4-18c0-3.3,0.2-6.6,1.8-9.6
		c0.8-1.4,1.9-2.7,3.2-3.6c1.3-0.9,2.9-1.4,4.5-1.6c6.2-0.2,12.1-0.3,17.8-0.3c2.8,0,5.6,0,8.3,0c2.6,0,5.2,0.1,7.8,0.4
		c2.4,0.3,4.8,0.8,7.1,1.8c2.1,0.9,3.9,2.3,5.3,4.2c1.2,1.7,2.2,3.5,3,5.4c0.8,1.8,1.5,3.4,2.2,5c1.3,3.2,2.2,6,2.9,8.2
		s1.2,4.1,1.4,5.3c0.1,0.6,0.2,1.1,0.3,1.4S320.8,274.1,320.8,274.2c-0.1-0.2-0.1-0.4-0.2-0.5c-0.1-0.3-0.2-0.8-0.3-1.4
		c-0.3-1.2-0.8-3-1.5-5.3s-1.7-5-3-8.2c-0.6-1.6-1.4-3.2-2.2-5c-0.8-1.8-1.8-3.6-3-5.3c-1.3-1.8-3.1-3.1-5.2-4
		c-2.2-0.9-4.6-1.4-7-1.7c-2.6-0.3-5.2-0.4-7.8-0.4c-2.7,0-5.4,0-8.3,0c-5.7,0.1-11.6,0.1-17.8,0.4c-3.1,0.3-5.9,2.1-7.3,4.9
		c-0.7,1.4-1.2,2.9-1.4,4.5c-0.1,0.4-0.1,0.8-0.2,1.2l-0.1,1.2c-0.1,0.8-0.1,1.6-0.1,2.4c0,6.1,0,12.2,0.4,18l0,0
		c0,2.6,1.2,5.2,3.1,6.9c0.5,0.4,1,0.7,1.6,1c0.6,0.2,1.2,0.4,1.8,0.6c0.3,0,0.6,0.1,0.9,0.2l1,0.1c0.6,0.1,1.3,0,1.9,0H281
		l24.4,0.1h4.9c1.4,0.1,2.9,0,4.3-0.2c2.3-0.5,4.2-1.9,5.4-3.9c0.7-1.2,1.1-2.7,1.1-4.1c0-0.4,0-0.7-0.1-1.1
		C320.9,274.4,320.8,274.3,320.8,274.2z"/>
	<g id="el775r0oatke9">
		<g id="elb8i3j74hy5k" class="st6">
			<path id="elekmwbt58uh8" d="M269.6,300.4c-0.5-0.9-1.7-1-2.7-0.9l-10.1,0.1l-1.4,1.2c0.8,2,2.7,3.5,4.8,3.7
				c2.1,0.2,4.3-0.1,6.3-0.7c0.9-0.1,1.7-0.5,2.4-1C269.7,302.2,269.9,301.2,269.6,300.4z"/>
		</g>
	</g>
	<path id="elrfgmpwobb3" class="st1" d="M268.3,301.9c1.4-0.2,2.2-0.9,2.3-1.5c0.1-0.4,0-0.8-0.3-1.1c-1.3-1.7-7-2-10.3-2
		c-3,0-5,0.8-5,2.5c0,1.9,0.6,2.5,5.7,2.5C263.2,302.3,265.7,302.1,268.3,301.9z"/>
	<path id="el2mg97davh5k" class="st4" d="M268.3,301.9c-0.4,0.1-0.9,0.2-1.4,0.3c-0.9,0.1-2.2,0.2-3.8,0.3c-1.9,0.1-3.8,0.1-5.7-0.1
		c-0.6-0.1-1.1-0.2-1.7-0.5c-0.6-0.3-1-0.9-1-1.6c-0.1-0.7,0-1.3,0.4-1.9c0.4-0.5,1-0.8,1.7-1c1.2-0.3,2.4-0.5,3.6-0.4
		c1.2,0,2.3,0.1,3.4,0.2c1.9,0.1,3.8,0.5,5.6,1.3c0.4,0.2,0.7,0.4,1,0.8c0.2,0.3,0.3,0.7,0.3,1.1c-0.1,0.6-0.5,1.1-1,1.3
		c-0.3,0.2-0.7,0.3-1,0.3C268.4,301.9,268.3,301.9,268.3,301.9c0.5-0.1,0.9-0.3,1.3-0.5c0.5-0.2,0.8-0.7,0.9-1.2
		c0-0.3-0.1-0.6-0.3-0.9c-0.2-0.3-0.5-0.5-0.9-0.6c-1.7-0.7-3.6-1-5.5-1.1c-1-0.1-2.2-0.1-3.3-0.1c-1.2-0.1-2.3,0.1-3.5,0.4
		c-0.5,0.1-1,0.4-1.4,0.9c-0.3,0.4-0.5,1-0.4,1.5c0,0.5,0.3,1,0.7,1.2c0.5,0.2,1,0.4,1.5,0.4c1.9,0.2,3.8,0.2,5.6,0.2
		c1.6,0,2.9-0.1,3.8-0.1C267.3,301.8,267.8,301.8,268.3,301.9z"/>
	<path id="el2v92hb1sy0m" class="st7" d="M322.7,243.4l18,32.8c0.9,1.7,3.1,2.4,4.8,1.4c0.1,0,0.1-0.1,0.2-0.1l7.1-4.5l-18.3-35.7
		l-9.9,1.9c-1.5,0.3-2.5,1.8-2.2,3.3C322.4,242.9,322.5,243.1,322.7,243.4z"/>
	<path id="el4jcqlxdpbwd" class="st4" d="M322.7,243.4c-0.2-0.3-0.3-0.6-0.4-1c-0.2-1.1,0.3-2.1,1.2-2.7c0.6-0.4,1.4-0.6,2.1-0.7
		l2.6-0.5l6.3-1.3h0.1l0.1,0.1c4.5,8.6,10.6,20.7,17.5,33.9l0.9,1.7l0.1,0.2l-0.2,0.1l-4.5,2.8l-2.2,1.4c-0.7,0.5-1.6,0.8-2.5,0.8
		c-0.9,0-1.8-0.4-2.5-1c-0.3-0.3-0.6-0.6-0.8-1l-0.6-1.1l-2.3-4.2l-7.8-14.4l-5.2-9.7l-1.4-2.6l-0.4-0.7
		C322.7,243.6,322.7,243.5,322.7,243.4c0,0.1,0,0.1,0.1,0.3l0.4,0.7l1.5,2.6c1.3,2.3,3.1,5.6,5.4,9.6s4.9,9,7.9,14.4l2.3,4.2
		c0.2,0.4,0.4,0.7,0.6,1.1c0.2,0.3,0.4,0.6,0.7,0.9c0.6,0.5,1.3,0.8,2.1,0.8c0.8,0,1.6-0.3,2.2-0.8l2.2-1.4l4.5-2.8l-0.1,0.3
		c-0.3-0.5-0.6-1.1-0.9-1.7c-6.8-13.3-12.9-25.4-17.4-34l0.2,0.1l-6.3,1.2l-2.6,0.5c-0.7,0.1-1.4,0.3-2,0.6
		c-0.8,0.6-1.3,1.6-1.2,2.6C322.4,242.8,322.5,243.1,322.7,243.4z"/>
	<rect id="el2es3vmz2t7p" x="28.8" y="351.5" class="st4" width="17.3" height="9.1"/>
	<polygon id="el1jqtbuyr7pd" class="st5" points="230.7,359.3 171.9,359.2 171.3,350.7 30,351.7 30,304 230.7,304 	"/>
	<rect id="elntkna2dior9" x="64.9" y="330.6" class="st5" width="98.2" height="28.5"/>
	<g id="elitjievqdhtd">
		<g id="el73yzlyksf45" class="st6">
			<rect id="elk9tq5k15q1h" x="64.9" y="330.6" width="98.2" height="28.5"/>
		</g>
	</g>
	<g id="elao2zwd12tlv">
		<g id="ela0ib7lw0tq" class="st6">
			<path id="elgdwrfb8h8oi" d="M417.8,297.1H398c-0.5,0-0.9-0.4-0.9-0.9l0,0c0-0.5,0.4-0.9,0.9-0.9h19.7c0.5,0,0.9,0.4,0.9,0.9
				c0,0,0,0,0,0l0,0C418.7,296.7,418.3,297.1,417.8,297.1z"/>
		</g>
	</g>
	<g id="elb7pfearthds">
		<g id="el8m9gdk6uk4w" class="st6">
			<path id="ell0uin4f4nyf" d="M417.8,299.8H398c-0.5,0-0.9-0.4-0.9-0.9l0,0c0-0.5,0.4-0.9,0.9-0.9h19.7c0.5,0,0.9,0.4,0.9,0.9
				c0,0,0,0,0,0l0,0C418.7,299.3,418.3,299.8,417.8,299.8z"/>
		</g>
	</g>
	<g id="elkuohr2q56xr">
		<g id="elbmft2qsj1uj" class="st6">
			<path id="ele39oywk2oeo" d="M417.8,302.5H398c-0.5,0-0.9-0.4-0.9-0.9l0,0c0-0.5,0.4-0.9,0.9-0.9h19.7c0.5,0,0.9,0.4,0.9,0.9l0,0
				C418.7,302,418.3,302.5,417.8,302.5C417.8,302.5,417.8,302.5,417.8,302.5z"/>
		</g>
	</g>
	<g id="elygldey7c73p">
		<g id="el0goyvwpzjg9a" class="st6">
			<path id="elofiz2rr4r0i" d="M176.8,341.9c-1.9-7.5-6.3-16.5-12.4-21.3c-9.8-7.7-22.4-11.3-34.8-12.1l17.2,12.1
				c18.4,8.4,28.4,28.6,24.1,48.4C175.8,360.1,179.2,351.7,176.8,341.9z"/>
		</g>
	</g>
	<path id="el9bgekdqwlwh" class="st5" d="M56.5,367.4c-9.3-0.2-16.9-7.6-17.3-16.9c0-0.1,0-0.3,0-0.4c-0.3-14.7,12.3-26,37.5-34
		c32.6-10.4,50.8-8.5,62.9-4.5c19.8,6.5,27.8,18,30.9,34.1s3,31.1-13.9,32.1c0,0,1.9-45.9-37.5-45.7s-47.1,35.8-47.1,35.8
		L56.5,367.4z"/>
	<path id="eljfqriimb73s" class="st4" d="M56.5,367.4h1h2.9l11.5,0.2l-0.1,0.1c0.8-3.1,1.9-6.2,3.4-9.1c1.7-3.6,3.9-7,6.4-10.1
		c3-3.6,6.5-6.8,10.4-9.3c2.2-1.4,4.5-2.6,6.9-3.6c1.2-0.6,2.5-0.9,3.8-1.4s2.6-0.8,4-1.1c5.8-1.3,11.7-1.7,17.6-1.1
		c1.6,0.2,3.1,0.4,4.6,0.8c1.6,0.4,3.1,0.9,4.6,1.4c3.1,1.2,5.9,2.9,8.5,4.9c5.2,4.3,8.9,10.4,11.3,17c1.2,3.4,2.1,6.9,2.6,10.5
		c0.6,3.6,0.9,7.3,0.8,11l-0.3-0.3c3.5-0.2,7.1-1.1,9.8-3.4s4.3-5.8,4.9-9.4c0.5-3.7,0.6-7.5,0.1-11.2c-0.4-3.8-1.1-7.6-1.9-11.3
		c-1.4-6.3-4.3-12.2-8.5-17.2c-4.2-4.7-9.4-8.4-15.2-10.9c-1.4-0.6-2.8-1.2-4.3-1.7l-2.2-0.8l-2.2-0.7c-2.9-0.8-5.8-1.4-8.8-1.8
		c-2.9-0.4-5.9-0.6-8.8-0.6c-2.9,0-5.8,0.1-8.6,0.3c-10.7,1.1-21.3,3.3-31.6,6.5c-2.4,0.7-4.8,1.5-7.1,2.3s-4.5,1.7-6.7,2.6
		c-4.2,1.7-8.1,3.9-11.9,6.3c-3.4,2.2-6.5,5-9,8.2c-2.3,2.9-3.9,6.2-4.7,9.8c-0.2,0.8-0.3,1.7-0.4,2.5s-0.1,1.6-0.1,2.4
		c-0.1,4.2,1.4,8.3,4.1,11.5c1.4,1.6,3,3,4.9,4c1.4,0.8,2.8,1.3,4.3,1.7c0.9,0.2,1.9,0.4,2.8,0.5l1,0.1h-1c-1-0.1-1.9-0.2-2.9-0.4
		c-6.4-1.5-11.4-6.5-13-12.8c-0.4-1.5-0.6-3-0.5-4.6c0-0.8,0-1.6,0.1-2.4s0.2-1.7,0.4-2.5c0.8-3.6,2.4-7,4.7-9.9
		c2.6-3.2,5.7-6,9.1-8.3c3.8-2.5,7.8-4.6,12-6.4c2.2-1,4.4-1.8,6.7-2.7s4.7-1.6,7.1-2.3c10.3-3.3,20.9-5.5,31.7-6.6
		c2.8-0.3,5.7-0.4,8.7-0.4c3,0,5.9,0.2,8.9,0.6c3,0.4,6,1,8.9,1.8l2.2,0.7l2.2,0.8c1.5,0.5,2.9,1.1,4.3,1.7
		c5.9,2.5,11.1,6.3,15.4,11c4.1,5.1,7,11.1,8.4,17.5c0.9,3.7,1.6,7.5,2,11.3c0.5,3.8,0.4,7.6-0.1,11.3c-0.6,3.7-2.2,7.3-5.1,9.7
		s-6.6,3.3-10.1,3.5h-0.3v-0.3c0-3.7-0.2-7.3-0.8-10.9c-0.5-3.5-1.4-7-2.6-10.4c-2.3-6.6-6-12.6-11.1-16.8c-2.5-2.1-5.3-3.7-8.3-4.9
		c-1.5-0.6-3-1-4.5-1.4c-1.5-0.3-3-0.6-4.6-0.8c-5.8-0.6-11.7-0.3-17.5,1c-1.4,0.3-2.7,0.7-4,1s-2.6,0.8-3.8,1.4
		c-2.4,1-4.7,2.2-6.8,3.5c-3.9,2.5-7.4,5.6-10.4,9.2c-2.5,3.1-4.7,6.4-6.4,10c-1.4,2.9-2.6,5.9-3.4,9v0.1h-0.1l-11.5-0.3l-2.9-0.1
		C56.8,367.4,56.5,367.4,56.5,367.4z"/>
	<path id="eluym8vufyff" class="st4" d="M22.2,349.1h13.3c0.9,0,1.6,0.7,1.6,1.6v10.7c0,0.9-0.7,1.6-1.6,1.6H22.2
		c-0.9,0-1.6-0.7-1.6-1.6v-10.7C20.6,349.8,21.3,349.1,22.2,349.1z"/>
	<path id="ello79lozyp3" class="st4" d="M230,350.3c0,0.1-13,0.3-29,0.3s-29-0.1-29-0.3s13-0.3,29-0.3S230,350.1,230,350.3z"/>
	<circle id="elc71e623md86" class="st4" cx="414.3" cy="376.6" r="36.6"/>
	<circle id="elt9rb4pxp9on" class="st8" cx="414.3" cy="376.6" r="23.4"/>
	<g id="el7pkxhiajbd4">
		<circle id="eldjww1ai33n8" class="st4" cx="414.3" cy="376.6" r="17.2"/>
	</g>
	<g id="elwtkbjdwbnoh">
		<circle id="elscvikqbg09c" class="st1" cx="414.3" cy="376.6" r="11.8"/>
	</g>
	<path id="elwxjjzfbrq0r" class="st3" d="M413.1,367.1c-0.2-0.5-1-0.5-1.5-0.3c-2.7,0.8-5,2.6-6.4,5.1c-1.3,2.3-2,5.8-0.5,7.5
		c0.4,0.1,0.7-0.6,0.7-1.1c0-0.5,0-1-0.1-1.5c0-1.9,0.9-3.8,2.4-5c1.5-1.2,3.1-2.3,4.7-3.3C412.9,368.2,413.4,367.6,413.1,367.1z"/>
	<path id="el2tmjyvbblen" class="st3" d="M415.9,386.3c0.3,0.5,1,0.4,1.5,0.2c2.6-1,4.8-3,6-5.6c1.1-2.4,1.5-5.9-0.1-7.5
		c-0.4,0-0.6,0.7-0.6,1.1c0,0.5,0.1,1,0.3,1.5c0.2,1.9-0.6,3.9-2,5.2c-1.3,1.4-3,2.4-4.5,3.7C416.1,385.2,415.6,385.8,415.9,386.3z"
		/>
	<circle id="elo0yksxiwk1" class="st4" cx="114.7" cy="376.6" r="36.6"/>
	
		<ellipse id="elpn20nwjcs2" transform="matrix(7.088900e-02 -0.9975 0.9975 7.088900e-02 -269.1114 464.2847)" class="st8" cx="114.7" cy="376.6" rx="23.4" ry="23.4"/>
	<g id="el1qcryj0mwhz">
		<circle id="elxamf44v3rw" class="st4" cx="114.7" cy="376.6" r="17.2"/>
	</g>
	<g id="el00vmmo1u0257m">
		<circle id="elmp0iyfsbvn" class="st1" cx="114.7" cy="376.6" r="11.8"/>
	</g>
	<path id="eld34pbtygv0u" class="st3" d="M113.5,367.1c-0.2-0.5-1-0.5-1.5-0.3c-2.7,0.8-5,2.6-6.4,5.1c-1.3,2.3-1.9,5.8-0.5,7.5
		c0.4,0.1,0.7-0.6,0.7-1.1c0-0.5,0-1-0.1-1.5c0-1.9,0.9-3.8,2.4-5c1.5-1.2,3.1-2.3,4.7-3.3C113.2,368.2,113.7,367.6,113.5,367.1z"/>
	<path id="elfvl69id1xtl" class="st3" d="M116.3,386.3c0.3,0.5,1,0.4,1.5,0.2c2.6-1,4.8-3,6-5.6c1.1-2.4,1.5-5.9-0.1-7.5
		c-0.4,0-0.6,0.7-0.6,1.1c0,0.5,0.1,1,0.2,1.4c0.2,1.9-0.6,3.9-2,5.2c-1.3,1.4-3,2.4-4.5,3.7C116.4,385.2,116,385.8,116.3,386.3z"/>
	<path id="el92e9mudoyn" class="st4" d="M230.7,280.2c0.1,0,0.3,17.7,0.3,39.5s-0.1,39.5-0.3,39.5s-0.3-17.7-0.3-39.5
		S230.5,280.2,230.7,280.2z"/>
	<path id="elwqfiwyfi1ui" class="st5" d="M228.2,304.3H26.7c-2.4,0-4.3-1.9-4.3-4.3c0,0,0,0,0,0l0,0c0-2.4,1.9-4.3,4.3-4.3
		c0,0,0,0,0,0h201.5c2.4,0,4.3,1.9,4.3,4.3c0,0,0,0,0,0l0,0C232.5,302.4,230.6,304.3,228.2,304.3
		C228.2,304.3,228.2,304.3,228.2,304.3z"/>
	<path id="eltwlisgko6w" class="st4" d="M228.2,304.3c0.4,0,0.7-0.1,1.1-0.2c1.9-0.5,3.2-2.2,3.1-4.2c0-1-0.4-1.9-1-2.6
		c-0.7-0.9-1.7-1.4-2.9-1.5c-1.2,0-2.5,0-3.8,0l-46.1,0.1l-152,0.1c-2.2-0.1-4,1.7-4.1,3.9c0,1.4,0.7,2.8,1.9,3.5
		c0.7,0.5,1.6,0.7,2.5,0.6h29.6h40.4l68.3,0l46.1,0.1h12.5h3.3h1.1c0,0-0.4,0-1.1,0h-3.3l-12.5,0l-46.1,0.1l-68.3,0.1H27
		c-1,0.1-1.9-0.2-2.8-0.7c-2.1-1.3-2.8-4.1-1.4-6.3c0.8-1.3,2.3-2.1,3.9-2.1l152,0.1l46.1,0.1c1.4,0,2.6,0,3.9,0
		c1.2,0.1,2.3,0.7,3,1.6c0.6,0.8,1,1.7,1,2.7c0,0.8-0.2,1.6-0.7,2.3c-0.6,0.9-1.5,1.6-2.6,1.9C229,304.2,228.6,304.3,228.2,304.3z"
		/>
	<g id="elteorp71265a">
		<g id="el9vqym8f3pbr" class="st6">
			<path id="el7skqys5gsxn" d="M230.4,293.8H434c1.3,0,2.3-1,2.3-2.3c0-1.3-1-2.3-2.3-2.3H230.4c-1.3,0-2.3,1-2.3,2.3
				C228.1,292.8,229.1,293.8,230.4,293.8z"/>
		</g>
	</g>
	<path id="eluazokl2g8" class="st5" d="M229.4,292.9H433c1.3,0,2.3-1,2.3-2.3c0-1.3-1-2.3-2.3-2.3H229.4c-1.3,0-2.3,1-2.3,2.3
		C227,291.8,228.1,292.9,229.4,292.9z"/>
	<path id="elwa5trozflzp" class="st4" d="M229.4,292.9h-0.3c-0.3,0-0.5-0.1-0.8-0.2c-0.4-0.2-0.8-0.5-1-0.9
		c-0.3-0.6-0.4-1.2-0.3-1.8c0.1-0.4,0.3-0.7,0.5-1c0.3-0.3,0.6-0.6,1.1-0.7c0.4-0.1,0.9-0.1,1.4-0.1h1.5h7.1l45.2-0.1l149.2-0.1
		c1,0,2,0.6,2.4,1.5c0.4,1,0.2,2-0.4,2.8c-0.4,0.4-0.8,0.6-1.3,0.7c-0.5,0.1-0.9,0.1-1.4,0.1h-34.4h-39.6l-67.1-0.1h-45.2l-12.3,0
		h-3.2h-1.1h1.1h3.2l12.3,0l45.2-0.1l67.1-0.1h74c0.4,0,0.9,0,1.3-0.1c0.4-0.1,0.7-0.3,1-0.6c0.5-0.6,0.7-1.5,0.4-2.3
		c-0.3-0.8-1.1-1.3-1.9-1.2l-149.2-0.1l-45.2-0.1h-7.1H230c-0.4,0-0.9,0-1.3,0.1c-0.8,0.2-1.3,0.8-1.5,1.6c-0.2,0.6-0.1,1.2,0.2,1.8
		c0.2,0.4,0.6,0.7,0.9,0.9c0.2,0.1,0.5,0.2,0.8,0.2L229.4,292.9z"/>
	<path id="elout2v939vjm" class="st4" d="M330.6,279.9c0.2,0.4,0.4,0.9,0.6,1.3c0.5,1.3,0.8,2.7,0.8,4.1c0.1,3.7,0,9.1,0.1,16.1
		c0,14,0,34,0.1,58.3v0.2H332h-82.7h-0.3v-0.3c0-10.1,0-20.6,0-31.3c0-26.8,0-52.3,0-75.5v-4.3c0-1.5,0.2-2.9,0.6-4.3
		c0.9-2.7,2.8-5,5.3-6.5c1.2-0.7,2.5-1.2,3.9-1.4c1.3-0.2,2.7-0.2,4.1-0.2h7.9h28.7c2.2-0.1,4.3,0.1,6.4,0.8c2,0.7,3.8,1.7,5.3,3.1
		c1.5,1.3,2.6,2.9,3.5,4.6c0.8,1.7,1.5,3.3,2.3,4.9l7.4,16.4c2,4.5,3.6,7.9,4.7,10.3c0.5,1.2,0.9,2.1,1.2,2.7
		S330.6,279.9,330.6,279.9c0,0-0.2-0.3-0.4-0.9s-0.7-1.5-1.3-2.7l-4.8-10.3c-2.1-4.5-4.6-9.9-7.5-16.2c-0.7-1.6-1.5-3.2-2.3-4.9
		c-1.8-3.5-4.9-6.2-8.6-7.5c-2-0.6-4.2-0.9-6.3-0.8h-28.7h-7.9c-1.3-0.1-2.7,0-4,0.2c-1.3,0.2-2.6,0.7-3.8,1.4
		c-2.4,1.4-4.2,3.6-5,6.2c-0.4,1.3-0.6,2.7-0.6,4.1v4.4c0,23.2,0,48.7,0,75.5v31.3l-0.3-0.3l82.7,0l-0.2,0.2
		c0-24.4,0.1-44.4,0.1-58.3c0-7,0-12.4,0-16.1c-0.1-1.4-0.3-2.8-0.8-4.1c-0.1-0.5-0.3-0.8-0.4-1S330.6,279.9,330.6,279.9z"/>
	<g id="el6qe5epn9dkv">
		<g id="el4kbajcv4dag" class="st9">
			<path id="elo62pgdp8n49" class="st3" d="M292.6,244.8c0,0-1.8,8.3-2.3,12s-1.7,7.6-4.5,10c-1.4,1.2-3.1,2-4.8,2.6
				c-7.1,2.7-14.9,3.6-22,6.3l0.4-20.3c0.1-5.5,4.6-10,10.1-10.2L292.6,244.8z"/>
		</g>
	</g>
	<path id="elf5lahs6href" class="st4" d="M301.4,255.6c0.1,0.1-7.6,5.2-17.1,11.3s-17.3,10.9-17.4,10.8s7.6-5.2,17.1-11.3
		S301.3,255.5,301.4,255.6z"/>
	<path id="el5fgr3i5wvff" class="st4" d="M292.6,256.9c0.1,0.1-4.4,2.9-10,6.1s-10.2,5.8-10.2,5.7s4.4-2.9,10-6.1
		S292.5,256.8,292.6,256.9z"/>
	<path id="el8hd1g0nax1" class="st4" d="M297.8,263.9c-0.7,0.5-1.4,1-2.2,1.3l-5.4,3l-5.3,3.1c-0.7,0.5-1.5,0.9-2.3,1.2
		c0.6-0.6,1.3-1.1,2-1.5c1.3-0.9,3.2-2,5.3-3.2s4-2.2,5.4-2.9C296.2,264.4,297,264.1,297.8,263.9z"/>
	<g id="ell7rl4mb8d4">
		<g id="elt9di39chg8" class="st6">
			<path id="elmekgfbsklcd" class="st3" d="M144.9,300H27.2c-0.6,0-1-0.4-1-1l0,0c0-0.6,0.4-1,1-1h117.7c0.6,0,1,0.4,1,1l0,0
				C145.9,299.6,145.4,300,144.9,300z"/>
		</g>
	</g>
	<g id="el8rgz6dxp25d">
		<g id="el7et7k56cw8x" class="st6">
			<path id="elzulhdke0go" class="st3" d="M142.3,298.9c0,0.5-0.4,0.9-0.9,0.9s-0.9-0.4-0.9-0.9c0-0.5,0.4-0.9,0.9-0.9
				C141.9,298,142.3,298.4,142.3,298.9C142.3,298.9,142.3,298.9,142.3,298.9z"/>
		</g>
	</g>
	<g id="el6eqr9oytnb">
		<g id="elyl6mj8lrio" class="st6">
			<path id="elcyc2kfm4s37" class="st3" d="M77.2,321.5c-1-0.3-2-0.2-3,0.1c-5.9,2.1-11.9,4.1-17.2,7.4c-4.9,3.1-9.3,7.4-11.3,12.9
				c-1.8,4.9-2,9.9,2.2,14.3c1.8,1.9,4.8,2,6.8,0.2c0.3-0.3,0.6-0.7,0.8-1.1c0.4-0.7,0.5-1.4,0.5-2.2c-0.1-2.6-2.4-4.8-2.5-7.4
				c-0.1-3.1,2.7-5.4,5.3-7.2c5.4-3.6,10.9-7,16.5-10.1c1.1-0.5,2.2-1.3,3-2.2C79.6,324.8,79.8,322.3,77.2,321.5z"/>
		</g>
	</g>
	<g id="elbmuwa8pff8i">
		<g id="elt6zr2t6uwpp" class="st6">
			<path id="elvba6qsbxwfd" class="st3" d="M89.6,317.4c-1.5-0.1-2.8,0.9-3,2.4c-0.1,1.5,0.9,2.8,2.4,3c1.5,0.2,2.8-0.8,3.1-2.3
				c0.2-1.4-0.6-2.8-2-3.3"/>
		</g>
	</g>
	<g id="elz9g2ofry9s">
		<g id="elfg8jc3n0nlh" class="st6">
			<path id="ellqr9xf1r7xf" class="st3" d="M385.8,313.6c-1.1-1.3-3.3-0.9-4.9-0.3c-11.1,4.3-19.5,11-24.9,21.6
				c-0.9,1.8-0.3,4,1.5,4.9c0.2,0.1,0.5,0.2,0.7,0.3c1.7,0.3,3.4-0.1,4.7-1.1c4.2-2.8,5.9-8.1,9.3-11.9c3-3.3,7.2-5.3,10.9-7.7
				c1.1-0.6,2-1.4,2.6-2.4C386.5,316,386.5,314.7,385.8,313.6z"/>
		</g>
	</g>
	<g id="ell9nc5vd7dmh">
		<g id="elorltwfd0ae" class="st6">
			<circle id="elfq48zk3feus" class="st3" cx="395" cy="312.4" r="3.1"/>
		</g>
	</g>
	<path id="eliu0n6bnjs9i" class="st3" d="M146.6,319.2c0,0-0.7-0.4-1.8-1c-1.6-0.9-3.3-1.7-5.1-2.4c-5.8-2.3-11.9-3.6-18.1-3.8
		c-6.2-0.2-12.4,0.3-18.5,1.5c-2.3,0.4-4.2,0.8-5.5,1.1l-1.5,0.3c-0.2,0.1-0.4,0.1-0.5,0.1c0.2-0.1,0.3-0.1,0.5-0.2
		c0.3-0.1,0.8-0.3,1.5-0.4c1.3-0.4,3.2-0.8,5.5-1.3c6.1-1.3,12.4-1.8,18.6-1.6c6.3,0.2,12.4,1.6,18.2,4c1.7,0.7,3.4,1.6,5,2.6
		c0.6,0.3,1,0.6,1.3,0.9S146.6,319.2,146.6,319.2z"/>
	<path id="elyvhglndgc6" class="st3" d="M105.2,331.8c0,0.1-1.3,0.4-3.3,0.9c-2.7,0.7-5.3,1.6-7.8,2.7c-2.5,1.1-5,2.4-7.3,3.8
		c-1.8,1.1-2.9,1.9-2.9,1.8s0.2-0.3,0.7-0.6s1.2-0.9,2-1.5c4.7-3.1,9.8-5.3,15.3-6.6c1-0.2,1.9-0.4,2.5-0.5
		C104.6,331.8,104.9,331.8,105.2,331.8z"/>
	<path id="elj9h59pxfw1f" class="st3" d="M128.5,297.1c0,0.1-21.8,0.3-48.7,0.3s-48.7-0.1-48.7-0.3s21.8-0.3,48.7-0.3
		S128.5,297,128.5,297.1z"/>
	<path id="el6d3pr17iv7m" class="st3" d="M217.2,297.8c0,0.1-14.4,0.3-32.3,0.3s-32.3-0.1-32.3-0.3s14.4-0.3,32.3-0.3
		S217.2,297.6,217.2,297.8z"/>
	<path id="elmxmzgpvvi1" class="st3" d="M243.3,289.8c-2.3,0.3-4.7,0.3-7,0.3c-2.3,0.1-4.7,0-7-0.3c2.3-0.3,4.7-0.3,7-0.3
		C238.6,289.5,241,289.5,243.3,289.8z"/>
	<path id="el9srr7qaxg69" class="st3" d="M279,289.3c0,0.1-6,0.3-13.3,0.3s-13.3-0.1-13.3-0.3s6-0.3,13.3-0.3S279,289.2,279,289.3z"
		/>
	<path id="elklkp2lptvvp" class="st3" d="M303,239.2c0,0.1-8.3,0.3-18.5,0.3s-18.5-0.1-18.5-0.3s8.3-0.3,18.5-0.3
		S303,239.1,303,239.2z"/>
	<path id="elo1u0wtkvlws" class="st3" d="M371.7,348c0,0.1-4.7,0.3-10.4,0.3s-10.5-0.1-10.5-0.3c3.5-0.3,7-0.4,10.5-0.3
		C364.8,347.6,368.3,347.7,371.7,348z"/>
	<path id="elcp1bqonqht" class="st3" d="M370.6,353.8c-2.6,0.3-5.3,0.4-7.9,0.3c-2.6,0.1-5.3,0-7.9-0.3c2.6-0.3,5.3-0.3,7.9-0.3
		C365.4,353.4,368,353.5,370.6,353.8z"/>
	<path id="eltobl0tvni" class="st3" d="M363.8,359.7c-2.5,0.3-5.1,0.3-7.7,0C358.6,359.4,361.2,359.4,363.8,359.7z"/>
	<path id="elpwrda3xath" class="st3" d="M436.7,308.6c-0.3,0-0.5-0.1-0.8-0.1l-2.3-0.5c-1-0.2-2.2-0.4-3.6-0.7s-3-0.5-4.8-0.8
		c-9.3-1.3-18.7-1.2-28,0.2c-5.1,0.8-10.1,2-15,3.6c-4,1.2-7.9,2.9-11.6,4.9c-2.5,1.4-4.8,3.1-6.9,5c-0.7,0.7-1.3,1.3-1.6,1.7
		c-0.2,0.2-0.4,0.4-0.6,0.6c0.1-0.2,0.3-0.4,0.5-0.6c0.5-0.6,1-1.2,1.5-1.7c2-2,4.3-3.8,6.8-5.2c3.7-2.1,7.6-3.7,11.7-5
		c4.9-1.6,10-2.8,15.1-3.6c9.3-1.4,18.8-1.4,28.2,0c1.8,0.3,3.4,0.6,4.8,0.9s2.6,0.6,3.6,0.8l2.2,0.6
		C436.2,308.5,436.4,308.5,436.7,308.6z"/>
	<path id="elr03097mdb7" class="st3" d="M351.4,332.4c0.5-0.9,1.2-1.8,2-2.5c0.7-0.8,1.5-1.6,2.4-2.2c-0.5,0.9-1.2,1.8-2,2.5
		C353.1,331,352.3,331.8,351.4,332.4z"/>
	<path id="el2h93jnb3f98" class="st3" d="M423.4,289.7c0,0.1-8.8,0.3-19.7,0.3s-19.7-0.1-19.7-0.3s8.8-0.3,19.7-0.3
		S423.4,289.6,423.4,289.7z"/>
	<path id="elnca8rb8y3p" class="st3" d="M283.5,289.7c0-0.1,17.9-0.3,40-0.3s40,0.1,40,0.3s-17.9,0.3-40,0.3
		S283.5,289.9,283.5,289.7z"/>
	<path id="eln89ytmxpicd" class="st3" d="M72.5,322.9c-0.5,0.3-1.1,0.5-1.7,0.7c-1.1,0.4-2.7,1-4.6,1.8c-2.3,0.9-4.5,1.9-6.7,3
		c-2.7,1.4-5.1,3-7.4,5c-2.2,2-4.1,4.4-5.5,7c-1.1,2.2-1.9,4.5-2.2,6.9c-0.2,1.6-0.1,3.3,0.2,4.9c0.2,1.1,0.4,1.8,0.4,1.8
		c-0.1-0.1-0.1-0.3-0.2-0.4c-0.2-0.4-0.3-0.9-0.4-1.3c-0.4-1.6-0.5-3.3-0.3-5c0.2-2.5,1-4.9,2.1-7.1c1.4-2.7,3.3-5.1,5.5-7.2
		c2.3-2,4.8-3.6,7.5-5c2.2-1.1,4.5-2.1,6.8-3c2-0.7,3.6-1.3,4.7-1.6L72,323C72.2,322.9,72.4,322.9,72.5,322.9z"/>
	<path id="el1s1smsnq9k3" class="st4" d="M36.7,353.2c-0.2,0-0.3-11-0.3-24.5s0.1-24.5,0.3-24.5s0.3,11,0.3,24.5
		S36.9,353.2,36.7,353.2z"/>
	<path id="el6udqgnit8tl" class="st4" d="M221.7,362c-0.1,0-0.3-12.9-0.3-28.8s0.1-28.8,0.3-28.8s0.3,12.9,0.3,28.8
		S221.9,362,221.7,362z"/>
	<g id="elvv8kxaihyc">
		<g id="elo8t7whh6ot" class="st9">
			<path id="elte9gamaubxj" class="st3" d="M261.5,227.6c0,1.1-2.5,1.9-5.9,3.4c-8.8,3.6-15.1,11.5-16.8,20.8
				c-0.8,3.6-1,6.3-2.1,6.5c-0.5,0.1-1.2-0.4-1.9-1.5c-0.9-1.6-1.4-3.4-1.6-5.2c-0.3-2.7-0.1-5.5,0.6-8.1
				c1.7-6.7,6.3-12.4,12.5-15.5c2.4-1.3,5.1-2,7.8-2.3c1.8-0.2,3.7-0.1,5.4,0.4C260.9,226.6,261.6,227.1,261.5,227.6z"/>
		</g>
	</g>
	<path id="elzyluiu0o9m" class="st3" d="M251.9,250.9c-0.2-0.7-0.2-1.4-0.1-2.1c0.3-3.4,2.1-6.4,4.9-8.4c0.5-0.4,1.2-0.8,1.8-0.9
		c-0.5,0.4-1,0.9-1.6,1.2c-1.2,1-2.3,2.3-3.1,3.6c-0.8,1.4-1.3,2.9-1.6,4.5C252.1,249.6,252,250.3,251.9,250.9z"/>
	<path id="elox3tum80hjj" class="st3" d="M232.7,265c0.3,3.2,0.3,6.5,0.3,9.7c0.1,3.2,0,6.5-0.3,9.7c-0.3-3.2-0.4-6.5-0.3-9.7
		C232.4,271.5,232.5,268.2,232.7,265z"/>
	<path id="eliidtfkg81ur" class="st3" d="M312.9,226.6c0,0.1-9.9,0.3-22.1,0.3s-22.1-0.1-22.1-0.3s9.9-0.3,22.1-0.3
		S312.9,226.4,312.9,226.6z"/>
	<path id="elw3d7eeny9xo" class="st5" d="M448.5,300c0,0-1.8-9.5,19.2-12.5v24.9C467.7,312.5,448.5,308.3,448.5,300z"/>
	<path id="elcn616hhbkp6" class="st4" d="M448.5,300c0.1,0.6,0.2,1.2,0.4,1.7c0.6,1.5,1.7,2.9,3,3.8c3.3,2.7,9,5,15.9,6.6l-0.3,0.2
		c0-4,0-8.3,0-12.8c0-4.3,0-8.4,0-12.1l0.3,0.3c-3.3,0.4-6.5,1.2-9.7,2.3c-2.5,0.8-4.8,2.1-6.7,3.9c-1.3,1.1-2.2,2.6-2.6,4.3
		c-0.1,0.4-0.2,0.9-0.2,1.4C448.5,299.7,448.5,299.8,448.5,300c0-0.2-0.1-0.3-0.1-0.5c0-0.5,0-0.9,0.1-1.4c0.4-1.7,1.3-3.3,2.6-4.5
		c2-1.8,4.3-3.1,6.8-4c3.2-1.1,6.5-1.9,9.8-2.4h0.3v0.3c0,3.8,0,7.9,0,12.1c0,4.5,0,8.9,0,12.8v0.3l-0.3-0.1
		c-6.9-1.7-12.6-4.1-16-6.9c-0.8-0.6-1.4-1.3-2-2.1c-0.4-0.6-0.8-1.2-1-1.9c-0.1-0.4-0.2-0.9-0.2-1.3
		C448.5,300.4,448.5,300.2,448.5,300z"/>
	<ellipse id="eltudmxkuj2v" class="st1" cx="468" cy="299.8" rx="2.3" ry="12.2"/>
	<path id="elj2bzfun45wb" class="st4" d="M470.4,299.8c0-0.2-0.1-0.3,0-0.5c0-0.4,0-0.9-0.1-1.5c-0.1-1.3-0.2-3.2-0.5-5.5
		c-0.2-1.2-0.5-2.5-0.9-3.6c-0.1-0.3-0.3-0.6-0.5-0.8c-0.2-0.2-0.4-0.2-0.6,0.1c-0.4,0.6-0.7,1.3-0.8,2c-1.2,6.5-1.2,13.2,0,19.7
		c0.1,0.7,0.4,1.4,0.8,2c0.2,0.2,0.4,0.3,0.6,0.1c0.2-0.2,0.4-0.5,0.5-0.8c0.4-1.2,0.7-2.4,0.9-3.6c0.3-2.3,0.5-4.2,0.5-5.5
		c0-0.6,0-1.1,0.1-1.5C470.3,300.2,470.3,300,470.4,299.8c0,0.2,0,0.4,0,0.6c0,0.3,0,0.8,0,1.5c0,1.8-0.1,3.7-0.4,5.5
		c-0.1,1.3-0.4,2.5-0.9,3.7c-0.1,0.4-0.3,0.7-0.6,1c-0.2,0.2-0.4,0.3-0.6,0.3c-0.2,0-0.4-0.2-0.6-0.4c-0.4-0.6-0.8-1.4-0.9-2.1
		c-1.3-6.6-1.3-13.4,0-19.9c0.2-0.8,0.5-1.5,0.9-2.1c0.1-0.2,0.4-0.3,0.6-0.4c0.2,0,0.5,0.1,0.6,0.3c0.3,0.3,0.5,0.6,0.6,1
		c0.4,1.2,0.7,2.5,0.9,3.7c0.2,1.8,0.4,3.7,0.4,5.5c0,0.6,0,1.1,0,1.5C470.4,299.5,470.4,299.6,470.4,299.8z"/>
	<g id="elrpf8voh9sy">
		<g id="el1yqsf7i4znm" class="st6">
			<path id="elw1q7d2ekxb" class="st3" d="M463.8,292.8c0.2-0.9-0.3-1.9-1.2-2.1c-0.3-0.1-0.6-0.1-0.9,0c-2.9,0.8-5.7,2.2-8,4.2
				c-0.9,0.6-1.6,1.4-2.1,2.3c-0.5,0.9-0.6,2.1-0.1,3.1c0.5,1,1.7,1.4,2.7,0.9c0.8-0.4,1.1-1.4,1.6-2.1c0.8-1.1,1.9-2.1,3-2.8
				c1.2-0.7,2.4-1.1,3.6-1.8C463.1,294.1,463.6,293.5,463.8,292.8z"/>
		</g>
	</g>
	<path id="ela4g5lmvdwnn" class="st3" d="M461.3,291c-0.7,0.4-1.5,0.7-2.2,0.9c-1.8,0.6-3.5,1.5-5,2.6c-1.5,1.2-2.5,2.8-2.9,4.7
		c-0.1,0.8-0.1,1.6,0,2.4c0,0-0.1-0.2-0.2-0.6c-0.1-0.6-0.2-1.2-0.1-1.8c0.3-2,1.4-3.8,2.9-5c1.6-1.2,3.4-2.1,5.3-2.6
		C459.7,291.3,460.5,291.1,461.3,291z"/>
	<path id="el8acpu2zi1b" class="st3" d="M464.6,290.3c0,0.1-0.2,0.3-0.5,0.4s-0.6,0-0.6-0.1s0.2-0.3,0.5-0.4
		S464.6,290.1,464.6,290.3z"/>
	<path id="elz17w9hdatde" class="st5" d="M369.5,290.6c0,0-1.3-7.1,14.3-9.4c0.1,0,0.2,0,0.2,0.1c0,0,0,0,0,0v18.4
		c0,0.1-0.1,0.2-0.1,0.2c0,0,0,0-0.1,0C382.1,299.6,369.5,296.4,369.5,290.6z"/>
	<path id="elozben9p8ou" class="st4" d="M369.5,290.6c0.1,0.7,0.3,1.4,0.7,2c1.1,1.6,2.6,2.9,4.4,3.8c2.6,1.3,5.4,2.4,8.2,3.1
		l0.6,0.1l0.3,0.1h0.1c0,0-0.1,0-0.1,0c0,0.1,0-0.1,0-0.2v-1c0-0.9,0-1.8,0-2.7c0-1.8,0-3.7,0-5.6s0-3.8,0-5.6c0-0.9,0-1.8,0-2.7
		v-0.6c0,0,0.1,0.1,0.1,0.1l-0.3,0.1l-1.2,0.2c-2.9,0.4-5.7,1.3-8.3,2.6c-1.8,0.9-3.2,2.3-4,4.1
		C369.7,289.1,369.5,289.8,369.5,290.6c0-0.3,0-0.5,0-0.6c0-0.5,0.1-1.1,0.3-1.6c0.8-1.9,2.2-3.4,4-4.4c2.6-1.4,5.5-2.4,8.4-2.8
		l1.3-0.2l0.3,0c0.2,0,0.4,0.1,0.5,0.3c0,0,0,0.1,0,0.1v0.6c0,0.9,0,1.8,0,2.7c0,1.8,0,3.7,0,5.6s0,3.8,0,5.6c0,0.9,0,1.8,0,2.7v1
		c0,0.1,0.1,0.1-0.1,0.5c-0.1,0.1-0.2,0.2-0.4,0.2h-0.2l-0.3-0.1l-0.6-0.2c-2.9-0.7-5.7-1.8-8.3-3.2c-1.8-0.9-3.4-2.3-4.4-4
		c-0.3-0.5-0.4-1-0.5-1.6C369.5,291,369.5,290.8,369.5,290.6z"/>
	<path id="elgz9bqd6o2mm" class="st1" d="M386,290.5c0,5.1-0.8,9.3-1.7,9.3s-1.7-4.1-1.7-9.3s0.8-9.2,1.7-9.2S386,285.4,386,290.5z"
		/>
	<path id="el6ig1vkiwf7e" class="st4" d="M386,290.5c-0.1-0.5-0.1-1-0.1-1.5c-0.1-1.4-0.2-2.7-0.4-4.1c-0.1-0.9-0.4-1.8-0.7-2.7
		c-0.1-0.2-0.2-0.4-0.4-0.6c-0.1-0.1-0.2-0.1-0.4,0c-0.3,0.4-0.5,0.9-0.6,1.5c-0.9,4.9-0.9,9.9,0,14.8c0.1,0.5,0.3,1,0.6,1.5
		c0.2,0.2,0.2,0.2,0.4,0.1c0.1-0.2,0.3-0.4,0.4-0.6c0.3-0.9,0.6-1.8,0.7-2.7c0.3-1.7,0.4-3.1,0.4-4.1
		C385.9,291.5,385.9,291,386,290.5c0.1,0.5,0.1,1,0,1.5c0,1.4-0.1,2.8-0.3,4.1c-0.1,1-0.3,1.9-0.6,2.8c-0.1,0.3-0.3,0.5-0.5,0.7
		c-0.1,0.1-0.1,0.1-0.2,0.2c-0.1,0-0.2,0.1-0.3,0c-0.2,0-0.4-0.1-0.5-0.3c-0.3-0.5-0.5-1.1-0.6-1.6c-1-5-1-10.1,0-15.1
		c0.1-0.6,0.4-1.1,0.7-1.6c0.1-0.1,0.3-0.2,0.5-0.3c0.1,0,0.2,0,0.3,0c0.1,0,0.1,0.1,0.2,0.1c0.2,0.2,0.3,0.5,0.5,0.8
		c0.3,0.9,0.5,1.9,0.6,2.8c0.2,1.4,0.3,2.8,0.3,4.1C386.1,289.5,386.1,290,386,290.5z"/>
	<g id="elealamskx8zu">
		<g id="elvf8s2jajvfs" class="st6">
			<path id="elcpc2ppe5w5u" class="st3" d="M380,286.5c0.7-0.5,0.9-1.4,0.4-2.1c-0.4-0.5-1-0.8-1.6-0.6c-2,0.7-3.8,1.7-5.4,3
				c-0.6,0.5-1.2,1.1-1.6,1.8c-0.4,0.7-0.5,1.6-0.1,2.3c0.4,0.7,1.3,1,2,0.7c0.6-0.3,0.8-1,1.2-1.6c0.6-0.8,1.4-1.6,2.3-2.1
				C378.1,287.3,379,287,380,286.5L380,286.5z"/>
		</g>
	</g>
	<path id="el7hazgjcejmk" class="st3" d="M379.1,283.8c-0.5,0.3-1.1,0.6-1.7,0.7c-1.4,0.5-2.6,1.1-3.8,2c-1.1,0.9-1.9,2.1-2.2,3.5
		c-0.1,0.6-0.1,1.2-0.1,1.8c-0.3-0.6-0.4-1.2-0.3-1.8c0.2-1.5,1-2.9,2.2-3.9c1.2-0.9,2.6-1.6,4-2C377.9,284,378.5,283.9,379.1,283.8
		z"/>
	<path id="elcbsr5o8crc6" class="st3" d="M381.6,283.3c0,0.1-0.1,0.3-0.4,0.4s-0.5,0-0.5-0.1s0.1-0.3,0.4-0.4
		S381.6,283.1,381.6,283.3z"/>
	<path id="elfqmf2p5iz1d" class="st5" d="M332.3,272.5c0,0,0.7-7.1-7.7-9.4c0,0-0.1,0.1-0.1,0.2v18.4c0,0.1,0,0.2,0.1,0.2
		C325.5,281.5,332.3,278.3,332.3,272.5z"/>
	<path id="elhm6uzaa6gtu" class="st4" d="M332.3,272.5c0,0.2,0,0.3,0,0.5c0,0.2,0,0.4,0,0.5s-0.1,0.5-0.1,0.8
		c-0.4,1.6-1.2,3.1-2.4,4.2c-0.8,0.8-1.6,1.5-2.6,2.1c-0.5,0.3-1,0.7-1.6,1c-0.3,0.1-0.6,0.3-0.9,0.4h-0.1c0,0,0,0-0.1,0
		s-0.3-0.2-0.3-0.3c0-0.1,0-0.2,0-0.3V281c0-2.7,0-5.6,0-8.7s0-6,0-8.7v-0.3c0-0.1,0-0.2,0-0.2c0-0.1,0.1-0.1,0.1-0.1
		c0-0.1,0.3,0,0.3,0l0.5,0.1l0.9,0.3c0.6,0.2,1.2,0.5,1.7,0.8c1,0.6,1.9,1.3,2.6,2.1c1.1,1.3,1.7,2.8,1.9,4.4
		c0.1,0.4,0.1,0.9,0.1,1.3C332.4,272.2,332.4,272.4,332.3,272.5c0,0,0-0.6-0.2-1.7c-0.3-1.6-1-3-2-4.2c-0.7-0.8-1.6-1.5-2.5-2
		c-0.5-0.3-1.1-0.5-1.6-0.8l-0.9-0.3l-0.5-0.1c0.2-0.3,0.2,0.1,0.2,0.2c0,2.7,0,5.6,0,8.7s0,6,0,8.7v0.7c0,0-0.2,0.1-0.1,0.1l0,0
		c0-0.1,0-0.1-0.1-0.2l0,0l0,0h0l0.9-0.4c0.5-0.3,1.1-0.6,1.6-0.9c0.9-0.6,1.8-1.3,2.5-2c1.1-1.1,2-2.5,2.4-4
		c0.1-0.3,0.1-0.5,0.2-0.7s0-0.4,0.1-0.5C332.2,272.8,332.3,272.7,332.3,272.5z"/>
	<path id="el644hlvkkkgq" class="st1" d="M323.4,272.3c0,5.1,0.4,9.2,0.9,9.2s0.9-4.1,0.9-9.2s-0.4-9.3-0.9-9.3
		S323.4,267.2,323.4,272.3z"/>
	<path id="eltz4gosewyk" class="st4" d="M323.4,272.3c-0.1-0.5-0.1-1-0.1-1.5c0-1,0-2.3,0.1-4c0-0.9,0.1-1.9,0.3-2.8
		c0.1-0.3,0.1-0.5,0.2-0.8c0-0.1,0.1-0.2,0.1-0.2c0-0.1,0.1-0.1,0.1-0.1c0.1,0,0.2,0,0.3,0c0.2,0.1,0.3,0.3,0.3,0.5
		c0.2,0.5,0.3,1.1,0.4,1.6c0.5,4.9,0.5,9.8,0,14.7c-0.1,0.6-0.2,1.1-0.4,1.6c-0.1,0.1-0.1,0.3-0.3,0.5c-0.1,0-0.2,0-0.3,0
		c-0.1,0-0.1-0.1-0.1-0.1c0-0.1-0.1-0.1-0.1-0.2c-0.1-0.3-0.2-0.5-0.2-0.8c-0.2-0.9-0.3-1.9-0.3-2.8c-0.1-1.7-0.1-3.1-0.1-4
		c0-0.5,0-1,0.1-1.5c0.1,0.5,0.1,1,0.1,1.5c0,1,0.1,2.3,0.3,4c0.1,0.9,0.2,1.8,0.4,2.7c0,0.2,0.1,0.5,0.2,0.7c0,0,0,0.1,0.1,0.1
		c0,0,0,0,0,0.1s0,0.1,0,0c0,0,0-0.1,0-0.1l0,0c0,0,0,0,0,0c0,0,0.1-0.1,0.1-0.1c0.1-0.5,0.2-1,0.3-1.5c0.5-4.8,0.5-9.7,0-14.5
		c-0.1-0.5-0.2-1.1-0.3-1.6c0-0.1,0-0.1-0.1-0.1v0l0,0c0,0,0-0.1,0-0.1s0,0,0,0s0,0,0,0.1c0,0,0,0.1-0.1,0.1
		c-0.1,0.2-0.2,0.5-0.2,0.7c-0.2,0.9-0.3,1.8-0.4,2.7c-0.1,1.7-0.2,3.1-0.3,4C323.5,271.4,323.5,271.9,323.4,272.3z"/>
	<g id="elx4u9mjm0y4">
		<g id="elxstoakt6nj9" class="st6">
			<path id="el2pr1bkhas93" class="st3" d="M326.7,268.3c-0.8-0.9-0.2-3.2,0.7-2.7c1.2,0.8,2.2,1.8,2.9,3c0.4,0.5,0.7,1.1,0.9,1.8
				c0.2,0.8,0.3,1.5,0.1,2.3c-0.2,0.7-0.7,1.1-1.1,0.7c-0.3-0.5-0.5-1-0.6-1.6c-0.3-0.8-0.7-1.5-1.2-2.1
				C327.7,269.2,327.2,268.9,326.7,268.3L326.7,268.3z"/>
		</g>
	</g>
	<path id="elb4r2xnd22m" class="st3" d="M327.1,265.7c0.5,0.1,0.9,0.3,1.3,0.6c1,0.6,1.9,1.5,2.4,2.6c0.5,1.1,0.8,2.2,0.8,3.4
		c0,0.5-0.1,1-0.3,1.4c0-1.6-0.4-3.2-1-4.6c-0.5-1-1.2-1.9-2.1-2.5C327.5,266.1,327.1,265.8,327.1,265.7z"/>
	<path id="elsk8hbi2ublo" class="st3" d="M325.8,265.1c0.1-0.1,0.2-0.2,0.3-0.1c0,0,0,0,0,0c0.1,0.1,0.2,0.2,0.1,0.4
		c-0.1,0.1-0.2,0.2-0.4,0.1C325.7,265.4,325.7,265.3,325.8,265.1z"/>
	<path id="el74k05nzbqyd" class="st5" d="M34.6,336.5c0,0,1.3-7.2-14.5-9.4v18.8C20.1,345.9,34.6,342.7,34.6,336.5z"/>
	<path id="el44e73a41psj" class="st4" d="M34.6,336.5c0,0.5,0,0.9-0.2,1.4c-0.4,1.2-1.2,2.3-2.2,3c-2.5,2.1-6.8,4-12,5.2l-0.3,0.1
		v-0.3c0-3,0-6.3,0-9.7c0-3.2,0-6.3,0-9.1v-0.3l0.3,0c2.5,0.3,5,0.9,7.4,1.8c1.9,0.7,3.7,1.7,5.1,3.1c1,0.9,1.6,2.1,1.9,3.4
		c0.1,0.3,0.1,0.7,0.1,1C34.7,336.2,34.7,336.3,34.6,336.5c0-1.8-0.8-3.4-2.1-4.6c-1.5-1.3-3.2-2.3-5.1-2.9
		c-2.4-0.8-4.9-1.4-7.4-1.7l0.3-0.2c0,2.8,0,5.9,0,9.1c0,3.4,0,6.7,0,9.7l-0.3-0.2c5.2-1.2,9.5-3,12-5c1-0.7,1.8-1.7,2.3-2.9
		C34.4,337.3,34.5,336.9,34.6,336.5z"/>
	<ellipse id="el6ggksn7s76y" class="st1" cx="19.8" cy="336.3" rx="1.7" ry="9.2"/>
	<path id="elrcss3jnt0sn" class="st4" d="M18.1,336.3c-0.1-0.5-0.1-1-0.1-1.5c0-1.4,0.1-2.8,0.3-4.1c0.1-1,0.3-1.9,0.6-2.8
		c0.1-0.3,0.2-0.5,0.4-0.8c0.1,0,0.1-0.1,0.2-0.1s0.2-0.1,0.3,0c0.2,0,0.4,0.1,0.5,0.3c0.3,0.5,0.6,1.1,0.7,1.6
		c0.5,2.5,0.8,5,0.8,7.5c0,2.5-0.2,5.1-0.8,7.5c-0.1,0.6-0.4,1.1-0.7,1.6c-0.1,0.2-0.3,0.3-0.5,0.3c-0.1,0-0.2,0-0.3,0
		c-0.1,0-0.2-0.1-0.2-0.2c-0.2-0.2-0.3-0.5-0.4-0.7c-0.3-0.9-0.5-1.9-0.6-2.8c-0.2-1.4-0.3-2.8-0.3-4.1
		C18,337.3,18,336.8,18.1,336.3c0.1,0.5,0.1,1,0.1,1.5c0.1,1.4,0.2,2.7,0.4,4.1c0.1,0.9,0.3,1.8,0.7,2.7c0.1,0.2,0.2,0.4,0.4,0.6
		c0.1,0.1,0.2,0.1,0.4-0.1c0.3-0.4,0.5-0.9,0.6-1.5c0.5-2.4,0.7-4.9,0.7-7.4c0-2.5-0.2-5-0.7-7.4c-0.1-0.5-0.3-1-0.6-1.5
		c-0.2-0.2-0.2-0.2-0.4,0c-0.2,0.2-0.3,0.4-0.4,0.6c-0.3,0.9-0.5,1.8-0.7,2.7c-0.2,1.4-0.4,2.7-0.4,4.1
		C18.2,335.3,18.2,335.8,18.1,336.3z"/>
	<g id="elanyodmr5kqc">
		<g id="el6gm2mat0d7g" class="st6">
			<path id="elc1voscsv35d" class="st3" d="M23,331c-0.2-0.7,0.2-1.4,0.9-1.6c0.2-0.1,0.4-0.1,0.7,0c2.2,0.6,4.3,1.7,6.1,3.1
				c0.6,0.5,1.2,1.1,1.6,1.8c0.4,0.7,0.4,1.6,0.1,2.3c-0.4,0.7-1.3,1-2,0.7c-0.6-0.3-0.8-1-1.2-1.6c-0.6-0.9-1.4-1.6-2.3-2.1
				c-0.9-0.6-1.8-0.9-2.7-1.3C23.6,332,23.2,331.6,23,331z"/>
		</g>
	</g>
	<path id="elbb51l7lzhz9" class="st3" d="M24.9,329.7c0.6,0,1.2,0.2,1.8,0.4c1.5,0.4,2.8,1.1,4,2c1.2,1,2,2.3,2.2,3.9
		c0.1,0.6,0,1.3-0.3,1.8c0-0.6,0-1.2-0.1-1.8c-0.3-1.4-1.1-2.6-2.2-3.5c-1.1-0.9-2.4-1.5-3.8-2C26,330.3,25.5,330,24.9,329.7z"/>
	<path id="elodbhc0gvp8n" class="st3" d="M22.4,329.1c0-0.1,0.3-0.2,0.5-0.1s0.4,0.2,0.4,0.4s-0.3,0.2-0.5,0.1
		S22.4,329.3,22.4,329.1z"/>
</g>
<g id="freepik--Sun--inject-139">
	<g id="elqcjldafgxu">
		<circle id="elb7igqnljf19" class="st5" cx="356.4" cy="109.9" r="13.5"/>
	</g>
	<path id="elw5o4dzx6sj" class="st5" d="M354.5,140c-0.1-1.8-0.2-3.7-0.1-5.6c0-1.9,0-3.7,0.1-5.6c0.1,1.8,0.2,3.7,0.1,5.6
		C354.6,136.3,354.6,138.2,354.5,140z"/>
	<path id="eldoj2ldj0qlq" class="st5" d="M346.7,125.8c0.1,0-1.2,2.4-2.8,5.2s-3,5.1-3.1,5.1s1.2-2.4,2.8-5.2
		S346.6,125.7,346.7,125.8z"/>
	<path id="elm5uso0knw6c" class="st5" d="M338.7,120.8c-1,1-2,1.9-3.1,2.7c-1.1,0.9-2.2,1.7-3.3,2.5c1-1,2-1.9,3.1-2.7
		C336.4,122.4,337.5,121.6,338.7,120.8z"/>
	<path id="elbj8kp9uywvj" class="st5" d="M367.9,134.6c-0.2-0.4-0.3-0.9-0.4-1.4c-0.2-0.9-0.5-2-0.8-3.3s-0.7-2.4-1-3.3
		c-0.2-0.4-0.3-0.9-0.4-1.4c0.2,0.4,0.4,0.8,0.6,1.3c0.3,0.8,0.7,2,1,3.3s0.6,2.5,0.7,3.3C367.8,133.6,367.9,134.1,367.9,134.6z"/>
	<path id="elynxdrwwao5" class="st5" d="M381.6,124.9c-1.4-1-2.7-2.1-4-3.3c-1.3-1.1-2.6-2.3-3.8-3.5c1.4,1,2.7,2.1,4,3.3
		C379.1,122.4,380.4,123.6,381.6,124.9z"/>
	<path id="elt57zymu2ghf" class="st5" d="M386.8,111.5c-0.5,0-1.1-0.1-1.6-0.2c-1-0.2-2.4-0.4-3.9-0.6s-2.9-0.3-3.9-0.3
		c-0.5,0-1.1-0.1-1.6-0.1c0.5-0.1,1.1-0.1,1.6-0.1c1,0,2.4,0.1,4,0.3s2.9,0.4,3.9,0.7C385.8,111.2,386.3,111.3,386.8,111.5z"/>
	<path id="el42wcjyozit3" class="st5" d="M386.8,98.4c0,0.1-2.9,0.8-6.5,1.7s-6.6,1.5-6.6,1.4s2.9-0.8,6.5-1.7
		S386.8,98.3,386.8,98.4z"/>
	<path id="el2p91wmn9e3c" class="st5" d="M371.6,83.1c0.1,0-1.3,2.3-3.1,5s-3.3,4.9-3.4,4.8s1.3-2.3,3.1-5S371.5,83.1,371.6,83.1z"
		/>
	<path id="elbpoto2jpeuo" class="st5" d="M356.5,79.9c0,0.6,0,1.2,0,1.8c0,1.1,0,2.7,0,4.5s0,3.3,0,4.5c0,0.6,0,1.2,0,1.8
		c-0.1-0.6-0.2-1.2-0.2-1.8c-0.1-1.1-0.1-2.7-0.1-4.5s0.1-3.3,0.1-4.5C356.3,81.2,356.4,80.5,356.5,79.9z"/>
	<path id="eltebwi7881de" class="st5" d="M345,94.2c-0.1,0-1.5-2.2-3.2-4.9c-1.1-1.6-2-3.3-2.9-5.1c1.1,1.6,2.2,3.2,3.2,4.9
		C343.1,90.8,344.1,92.5,345,94.2z"/>
	<path id="elxrw3zr731fj" class="st5" d="M338.2,100c-0.5,0-1-0.1-1.4-0.2c-0.9-0.2-2.1-0.5-3.4-0.9s-2.5-0.8-3.3-1.1
		c-0.5-0.1-0.9-0.3-1.3-0.6c0.5,0.1,0.9,0.2,1.4,0.4c0.9,0.3,2,0.6,3.3,1s2.5,0.7,3.4,0.9C337.3,99.7,337.7,99.8,338.2,100z"/>
	<path id="elcdzalhlrste" class="st5" d="M335.2,110.4c-2.9,0.5-5.7,0.7-8.6,0.8C329.4,110.7,332.3,110.5,335.2,110.4z"/>
</g>
<g id="freepik--Birds--inject-139">
	<path id="elptyxdzhfqs7" class="st4" d="M113.8,147.4c0,0-0.8-0.3-2.2-0.6c-2-0.4-4.1-0.5-6.2-0.2c-3.1,0.4-5.9,1.6-8.3,3.6
		c-2.9,2.4-5,5.7-5.9,9.3v0.1l-0.2,0.7l-0.3-0.6c-1.4-3.5-3.9-6.4-7-8.5c-2.6-1.7-5.5-2.7-8.6-2.9c-2.1-0.1-4.1,0-6.1,0.6
		c-1.4,0.4-2.2,0.7-2.2,0.7c0.2-0.1,0.4-0.2,0.5-0.3c0.5-0.2,1.1-0.4,1.6-0.6c2-0.6,4.1-0.8,6.2-0.7c3.1,0.2,6.1,1.1,8.8,2.8
		c3.2,2.1,5.8,5.1,7.2,8.7h-0.4v-0.1c0.9-3.8,3-7.1,6-9.5c2.5-2,5.4-3.2,8.5-3.6c2.1-0.3,4.2-0.1,6.3,0.4c0.6,0.1,1.1,0.3,1.6,0.5
		C113.4,147.2,113.6,147.2,113.8,147.4z"/>
	<path id="elbt51dwlvjnp" class="st4" d="M175.5,113.5c0,0-0.4-0.1-1.2-0.3c-1.1-0.2-2.3-0.3-3.4-0.1c-1.7,0.2-3.2,0.9-4.5,2
		c-1.6,1.3-2.7,3.1-3.2,5.1v0.1l-0.2,0.7l-0.3-0.6c-0.8-1.9-2.1-3.5-3.8-4.6c-1.4-0.9-3-1.5-4.7-1.6c-1.1-0.1-2.3,0-3.4,0.3
		c-0.8,0.2-1.2,0.4-1.2,0.3c0.1-0.1,0.2-0.1,0.3-0.2c0.3-0.1,0.6-0.2,0.9-0.3c2.8-0.8,5.8-0.4,8.3,1.1c1.8,1.2,3.2,2.8,4,4.8h-0.4
		V120c0.5-2.1,1.7-4,3.4-5.3c2.3-1.8,5.3-2.5,8.2-1.7c0.3,0.1,0.6,0.2,0.9,0.3L175.5,113.5z"/>
	<path id="elhpt6mjcrcfv" class="st4" d="M135.2,99.6c-0.4,0.5-0.8,0.9-1.2,1.4c-1.1,1.2-2,2.5-2.9,3.9c-2.8,4.6-4.3,9.8-4.3,15.2
		v0.2h-0.4c-0.4-2.9-1.4-5.7-2.8-8.3c-1.9-3.5-4.6-6.5-7.9-8.8c-0.9-0.7-1.5-1-1.5-1s0.2,0,0.4,0.2s0.7,0.3,1.1,0.7
		c1.4,0.9,2.6,1.9,3.8,3c1.7,1.7,3.2,3.6,4.4,5.7c1.4,2.6,2.4,5.4,2.9,8.4h-0.4V120c0-5.5,1.5-10.8,4.5-15.4c0.9-1.4,1.9-2.7,3-3.9
		c0.4-0.4,0.7-0.7,1-0.9C134.9,99.8,135.1,99.7,135.2,99.6z"/>
</g>
</svg>
